<svg xmlns="http://www.w3.org/2000/svg" xmlns:xlink="http://www.w3.org/1999/xlink" width="500" zoomAndPan="magnify" viewBox="0 0 375 374.999991" height="500" preserveAspectRatio="xMidYMid meet" version="1.0"><defs><g/><clipPath id="368ebcf44e"><path d="M 147 226.90625 L 227.859375 226.90625 L 227.859375 236.9375 L 147 236.9375 Z M 147 226.90625 " clip-rule="nonzero"/></clipPath><clipPath id="b27929d1c6"><path d="M 267.398438 46.101562 L 277.609375 46.101562 L 277.609375 66.582031 L 267.398438 66.582031 Z M 267.398438 46.101562 " clip-rule="nonzero"/></clipPath><clipPath id="2c1a4b190d"><path d="M 137 16.4375 L 238 16.4375 L 238 27 L 137 27 Z M 137 16.4375 " clip-rule="nonzero"/></clipPath><clipPath id="4975ddd7dd"><path d="M 97.0625 46 L 108 46 L 108 67 L 97.0625 67 Z M 97.0625 46 " clip-rule="nonzero"/></clipPath></defs><path fill="#ffffff" d="M 249.453125 143.75 L 223.734375 143.75 L 223.734375 100.230469 L 249.453125 100.230469 L 249.453125 143.75 " fill-opacity="1" fill-rule="nonzero"/><path fill="#ffffff" d="M 157.359375 186.847656 L 157.355469 176.816406 L 147.347656 176.824219 L 147.34375 156.769531 L 227.496094 156.757812 L 227.507812 166.789062 L 197.445312 166.796875 L 197.449219 176.816406 L 167.382812 176.824219 L 167.394531 186.847656 L 157.359375 186.847656 " fill-opacity="1" fill-rule="nonzero"/><path fill="#ffffff" d="M 157.359375 186.839844 L 157.359375 176.816406 L 147.347656 176.816406 L 147.347656 156.769531 L 227.496094 156.769531 L 227.496094 166.789062 L 197.445312 166.789062 L 197.445312 176.816406 L 167.382812 176.816406 L 167.382812 186.839844 L 157.359375 186.839844 " fill-opacity="1" fill-rule="nonzero"/><path fill="#ffffff" d="M 247.542969 126.707031 L 247.539062 96.625 L 257.554688 96.621094 L 257.5625 126.707031 L 247.542969 126.707031 " fill-opacity="1" fill-rule="nonzero"/><path fill="#ffffff" d="M 247.542969 96.625 L 257.554688 96.625 L 257.554688 126.703125 L 247.542969 126.703125 L 247.542969 96.625 " fill-opacity="1" fill-rule="nonzero"/><path fill="#ffffff" d="M 147.347656 226.941406 L 147.34375 216.90625 L 137.324219 216.914062 L 137.316406 206.882812 L 127.304688 206.890625 L 127.296875 176.816406 L 137.324219 176.8125 L 137.332031 186.839844 L 147.347656 186.835938 L 147.355469 196.855469 L 227.496094 196.847656 L 227.492188 186.839844 L 247.542969 186.835938 L 247.550781 206.882812 L 237.519531 206.890625 L 237.523438 216.90625 L 227.496094 216.914062 L 227.507812 226.941406 L 147.347656 226.941406 " fill-opacity="1" fill-rule="nonzero"/><path fill="#ffffff" d="M 247.542969 186.839844 L 247.542969 206.882812 L 237.519531 206.882812 L 237.519531 216.90625 L 227.496094 216.90625 L 227.496094 226.933594 L 147.347656 226.933594 L 147.347656 216.90625 L 137.324219 216.90625 L 137.324219 206.882812 L 127.304688 206.882812 L 127.304688 176.816406 L 137.324219 176.816406 L 137.324219 186.839844 L 147.347656 186.839844 L 147.347656 196.855469 L 227.496094 196.855469 L 227.496094 186.839844 L 247.542969 186.839844 " fill-opacity="1" fill-rule="nonzero"/><path fill="#ffffff" d="M 167.382812 136.730469 L 167.378906 126.703125 L 117.292969 126.707031 L 117.285156 86.605469 L 127.304688 86.597656 L 127.296875 76.589844 L 117.292969 76.597656 L 117.285156 66.558594 L 107.265625 66.570312 L 107.261719 56.539062 L 117.292969 56.53125 L 117.285156 36.492188 L 137.324219 36.488281 L 137.316406 26.472656 L 237.519531 26.464844 L 237.523438 36.492188 L 257.554688 36.488281 L 257.5625 46.507812 L 267.582031 46.503906 L 267.589844 66.558594 L 247.542969 66.570312 L 247.550781 76.589844 L 237.519531 76.597656 L 237.523438 86.605469 L 227.496094 86.613281 L 227.507812 96.625 L 137.324219 96.636719 L 137.332031 106.65625 L 217.484375 106.648438 L 217.496094 136.730469 L 167.382812 136.730469 " fill-opacity="1" fill-rule="nonzero"/><path fill="#ffffff" d="M 267.582031 46.507812 L 267.582031 66.558594 L 247.542969 66.558594 L 247.542969 76.589844 L 237.519531 76.589844 L 237.519531 86.605469 L 227.496094 86.605469 L 227.496094 96.625 L 137.324219 96.625 L 137.324219 106.65625 L 217.484375 106.65625 L 217.484375 136.722656 L 167.382812 136.722656 L 167.382812 126.703125 L 117.292969 126.703125 L 117.292969 86.605469 L 127.304688 86.605469 L 127.304688 76.589844 L 117.292969 76.589844 L 117.292969 66.558594 L 107.265625 66.558594 L 107.265625 56.539062 L 117.292969 56.539062 L 117.292969 36.492188 L 137.324219 36.492188 L 137.324219 26.472656 L 237.519531 26.472656 L 237.519531 36.492188 L 257.554688 36.492188 L 257.554688 46.507812 L 267.582031 46.507812 " fill-opacity="1" fill-rule="nonzero"/><g clip-path="url(#368ebcf44e)"><path fill="#6d2d2b" d="M 147.347656 236.957031 L 147.34375 226.933594 L 227.496094 226.929688 L 227.507812 236.957031 L 147.347656 236.957031 " fill-opacity="1" fill-rule="nonzero"/><path fill="#6d2d2b" d="M 227.496094 226.933594 L 227.496094 236.949219 L 147.347656 236.949219 L 147.347656 226.933594 L 227.496094 226.933594 " fill-opacity="1" fill-rule="nonzero"/></g><g clip-path="url(#b27929d1c6)"><path fill="#6d2d2b" d="M 267.582031 66.570312 L 267.574219 46.507812 L 277.597656 46.503906 L 277.609375 66.570312 L 267.582031 66.570312 " fill-opacity="1" fill-rule="nonzero"/><path fill="#6d2d2b" d="M 277.597656 46.507812 L 277.597656 66.558594 L 267.582031 66.558594 L 267.582031 46.507812 L 277.597656 46.507812 " fill-opacity="1" fill-rule="nonzero"/></g><path fill="#6d2d2b" d="M 257.554688 146.75 L 257.550781 66.558594 L 267.582031 66.554688 L 267.589844 146.75 L 257.554688 146.75 " fill-opacity="1" fill-rule="nonzero"/><path fill="#6d2d2b" d="M 267.582031 66.558594 L 267.582031 146.746094 L 257.554688 146.746094 L 257.554688 66.558594 L 267.582031 66.558594 " fill-opacity="1" fill-rule="nonzero"/><path fill="#6d2d2b" d="M 257.554688 46.515625 L 257.550781 36.492188 L 267.582031 36.488281 L 267.589844 46.515625 L 257.554688 46.515625 " fill-opacity="1" fill-rule="nonzero"/><path fill="#6d2d2b" d="M 267.582031 36.492188 L 267.582031 46.507812 L 257.554688 46.507812 L 257.554688 36.492188 L 267.582031 36.492188 " fill-opacity="1" fill-rule="nonzero"/><path fill="#6d2d2b" d="M 247.542969 206.890625 L 247.539062 146.746094 L 257.554688 146.738281 L 257.5625 206.890625 L 247.542969 206.890625 " fill-opacity="1" fill-rule="nonzero"/><path fill="#6d2d2b" d="M 257.554688 146.746094 L 257.554688 206.882812 L 247.542969 206.882812 L 247.542969 146.746094 L 257.554688 146.746094 " fill-opacity="1" fill-rule="nonzero"/><path fill="#6d2d2b" d="M 227.496094 226.941406 L 227.492188 216.90625 L 237.519531 216.902344 L 237.523438 226.941406 L 227.496094 226.941406 " fill-opacity="1" fill-rule="nonzero"/><path fill="#6d2d2b" d="M 227.496094 216.90625 L 237.519531 216.90625 L 237.519531 226.933594 L 227.496094 226.933594 L 227.496094 216.90625 " fill-opacity="1" fill-rule="nonzero"/><path fill="#6d2d2b" d="M 237.519531 216.914062 L 237.511719 206.882812 L 247.542969 206.878906 L 247.550781 216.914062 L 237.519531 216.914062 " fill-opacity="1" fill-rule="nonzero"/><path fill="#6d2d2b" d="M 247.542969 206.882812 L 247.542969 216.90625 L 237.519531 216.90625 L 237.519531 206.882812 L 247.542969 206.882812 " fill-opacity="1" fill-rule="nonzero"/><path fill="#6d2d2b" d="M 237.519531 66.570312 L 237.511719 56.539062 L 247.542969 56.53125 L 247.550781 66.570312 L 237.519531 66.570312 " fill-opacity="1" fill-rule="nonzero"/><path fill="#6d2d2b" d="M 237.519531 66.570312 L 237.511719 56.539062 L 247.542969 56.53125 L 247.550781 66.570312 L 237.519531 66.570312 " fill-opacity="1" fill-rule="nonzero"/><path fill="#6d2d2b" d="M 247.542969 56.539062 L 247.542969 66.558594 L 237.519531 66.558594 L 237.519531 56.539062 L 247.542969 56.539062 " fill-opacity="1" fill-rule="nonzero"/><path fill="#6d2d2b" d="M 237.519531 36.503906 L 237.511719 26.472656 L 257.554688 26.464844 L 257.5625 36.503906 L 237.519531 36.503906 " fill-opacity="1" fill-rule="nonzero"/><path fill="#6d2d2b" d="M 257.554688 26.472656 L 257.554688 36.492188 L 237.519531 36.492188 L 237.519531 26.472656 L 257.554688 26.472656 " fill-opacity="1" fill-rule="nonzero"/><path fill="#6d2d2b" d="M 167.382812 86.613281 L 167.378906 66.558594 L 237.519531 66.554688 L 237.523438 76.589844 L 217.484375 76.597656 L 217.496094 86.613281 L 167.382812 86.613281 " fill-opacity="1" fill-rule="nonzero"/><path fill="#6d2d2b" d="M 167.382812 86.613281 L 167.378906 66.558594 L 237.519531 66.554688 L 237.523438 76.589844 L 217.484375 76.597656 L 217.496094 86.613281 L 167.382812 86.613281 " fill-opacity="1" fill-rule="nonzero"/><path fill="#6d2d2b" d="M 237.519531 66.558594 L 237.519531 76.589844 L 217.484375 76.589844 L 217.484375 86.605469 L 167.382812 86.605469 L 167.382812 66.558594 L 237.519531 66.558594 " fill-opacity="1" fill-rule="nonzero"/><path fill="#6d2d2b" d="M 217.484375 56.546875 L 217.480469 46.507812 L 227.496094 46.503906 L 227.507812 56.546875 L 217.484375 56.546875 " fill-opacity="1" fill-rule="nonzero"/><path fill="#6d2d2b" d="M 217.484375 56.546875 L 217.480469 46.507812 L 227.496094 46.503906 L 227.507812 56.546875 L 217.484375 56.546875 " fill-opacity="1" fill-rule="nonzero"/><path fill="#6d2d2b" d="M 227.496094 46.507812 L 227.496094 56.539062 L 217.484375 56.539062 L 217.484375 46.507812 L 227.496094 46.507812 " fill-opacity="1" fill-rule="nonzero"/><path fill="#6d2d2b" d="M 137.324219 226.941406 L 137.316406 216.90625 L 147.347656 216.902344 L 147.355469 226.941406 L 137.324219 226.941406 " fill-opacity="1" fill-rule="nonzero"/><path fill="#6d2d2b" d="M 147.347656 216.90625 L 147.347656 226.933594 L 137.324219 226.933594 L 137.324219 216.90625 L 147.347656 216.90625 " fill-opacity="1" fill-rule="nonzero"/><path fill="#6d2d2b" d="M 127.304688 216.914062 L 127.296875 206.882812 L 137.324219 206.878906 L 137.332031 216.914062 L 127.304688 216.914062 " fill-opacity="1" fill-rule="nonzero"/><path fill="#6d2d2b" d="M 137.324219 206.882812 L 137.324219 216.90625 L 127.304688 216.90625 L 127.304688 206.882812 L 137.324219 206.882812 " fill-opacity="1" fill-rule="nonzero"/><g clip-path="url(#2c1a4b190d)"><path fill="#6d2d2b" d="M 137.324219 26.480469 L 137.316406 16.445312 L 237.519531 16.4375 L 237.523438 26.480469 L 137.324219 26.480469 " fill-opacity="1" fill-rule="nonzero"/><path fill="#6d2d2b" d="M 237.519531 16.445312 L 237.519531 26.472656 L 137.324219 26.472656 L 137.324219 16.445312 L 237.519531 16.445312 " fill-opacity="1" fill-rule="nonzero"/></g><path fill="#6d2d2b" d="M 117.292969 206.890625 L 117.285156 146.746094 L 127.304688 146.738281 L 127.3125 206.890625 L 117.292969 206.890625 " fill-opacity="1" fill-rule="nonzero"/><path fill="#6d2d2b" d="M 127.304688 146.746094 L 127.304688 206.882812 L 117.292969 206.882812 L 117.292969 146.746094 L 127.304688 146.746094 " fill-opacity="1" fill-rule="nonzero"/><path fill="#673e30" d="M 147.347656 86.613281 L 147.34375 76.589844 L 167.382812 76.582031 L 167.394531 86.613281 L 147.347656 86.613281 " fill-opacity="1" fill-rule="nonzero"/><path fill="#673e30" d="M 167.382812 76.589844 L 167.382812 86.605469 L 147.347656 86.605469 L 147.347656 76.589844 L 167.382812 76.589844 " fill-opacity="1" fill-rule="nonzero"/><path fill="#673e30" d="M 197.445312 66.570312 L 197.4375 56.539062 L 167.382812 56.546875 L 167.378906 46.507812 L 217.484375 46.503906 L 217.496094 56.539062 L 237.519531 56.53125 L 237.523438 66.570312 L 197.445312 66.570312 " fill-opacity="1" fill-rule="nonzero"/><path fill="#673e30" d="M 197.445312 66.570312 L 197.4375 56.539062 L 167.382812 56.546875 L 167.378906 46.507812 L 217.484375 46.503906 L 217.496094 56.539062 L 237.519531 56.53125 L 237.523438 66.570312 L 197.445312 66.570312 " fill-opacity="1" fill-rule="nonzero"/><path fill="#673e30" d="M 197.445312 66.558594 L 197.445312 56.539062 L 167.382812 56.539062 L 167.382812 46.507812 L 217.484375 46.507812 L 217.484375 56.539062 L 237.519531 56.539062 L 237.519531 66.558594 L 197.445312 66.558594 " fill-opacity="1" fill-rule="nonzero"/><path fill="#673e30" d="M 137.324219 56.546875 L 137.316406 46.507812 L 147.347656 46.503906 L 147.355469 56.546875 L 137.324219 56.546875 " fill-opacity="1" fill-rule="nonzero"/><path fill="#673e30" d="M 147.347656 56.539062 L 137.324219 56.539062 L 137.324219 46.507812 L 147.347656 46.507812 L 147.347656 56.539062 " fill-opacity="1" fill-rule="nonzero"/><path fill="#673e30" d="M 137.324219 186.847656 L 137.316406 176.816406 L 127.304688 176.824219 L 127.296875 146.746094 L 117.292969 146.75 L 117.285156 136.722656 L 137.324219 136.714844 L 137.332031 146.746094 L 147.347656 146.738281 L 147.355469 186.847656 L 137.324219 186.847656 " fill-opacity="1" fill-rule="nonzero"/><path fill="#673e30" d="M 137.324219 146.746094 L 147.347656 146.746094 L 147.347656 186.839844 L 137.324219 186.839844 L 137.324219 176.816406 L 127.304688 176.816406 L 127.304688 146.746094 L 117.292969 146.746094 L 117.292969 136.722656 L 137.324219 136.722656 L 137.324219 146.746094 " fill-opacity="1" fill-rule="nonzero"/><path fill="#673e30" d="M 217.484375 86.613281 L 217.480469 76.589844 L 227.496094 76.582031 L 227.507812 86.613281 L 217.484375 86.613281 " fill-opacity="1" fill-rule="nonzero"/><path fill="#673e30" d="M 217.484375 76.589844 L 227.496094 76.589844 L 227.496094 86.605469 L 217.484375 86.605469 L 217.484375 76.589844 " fill-opacity="1" fill-rule="nonzero"/><path fill="#673e30" d="M 207.460938 186.847656 L 207.457031 176.816406 L 217.484375 176.8125 L 217.480469 166.789062 L 227.496094 166.78125 L 227.492188 156.769531 L 247.542969 156.757812 L 247.550781 176.816406 L 227.496094 176.824219 L 227.507812 186.847656 L 207.460938 186.847656 " fill-opacity="1" fill-rule="nonzero"/><path fill="#673e30" d="M 247.542969 156.769531 L 247.542969 176.816406 L 227.496094 176.816406 L 227.496094 186.839844 L 207.460938 186.839844 L 207.460938 176.816406 L 217.484375 176.816406 L 217.484375 166.789062 L 227.496094 166.789062 L 227.496094 156.769531 L 247.542969 156.769531 " fill-opacity="1" fill-rule="nonzero"/><path fill="#673e30" d="M 237.519531 146.75 L 237.511719 136.722656 L 247.542969 136.714844 L 247.550781 146.75 L 237.519531 146.75 " fill-opacity="1" fill-rule="nonzero"/><path fill="#673e30" d="M 237.519531 136.722656 L 247.542969 136.722656 L 247.542969 146.746094 L 237.519531 146.746094 L 237.519531 136.722656 " fill-opacity="1" fill-rule="nonzero"/><path fill="#673e30" d="M 247.542969 136.730469 L 247.539062 126.703125 L 257.554688 126.691406 L 257.5625 136.730469 L 247.542969 136.730469 " fill-opacity="1" fill-rule="nonzero"/><path fill="#673e30" d="M 257.554688 126.703125 L 257.554688 136.722656 L 247.542969 136.722656 L 247.542969 126.703125 L 257.554688 126.703125 " fill-opacity="1" fill-rule="nonzero"/><path fill="#925d39" d="M 117.292969 136.730469 L 117.285156 126.703125 L 127.304688 126.691406 L 127.3125 136.730469 L 117.292969 136.730469 " fill-opacity="1" fill-rule="nonzero"/><path fill="#925d39" d="M 117.292969 126.703125 L 127.304688 126.703125 L 127.304688 136.722656 L 117.292969 136.722656 L 117.292969 126.703125 " fill-opacity="1" fill-rule="nonzero"/><path fill="#925d39" d="M 137.324219 76.597656 L 137.316406 66.558594 L 157.359375 66.554688 L 157.355469 56.539062 L 197.445312 56.53125 L 197.449219 66.558594 L 167.382812 66.570312 L 167.394531 76.597656 L 137.324219 76.597656 " fill-opacity="1" fill-rule="nonzero"/><path fill="#925d39" d="M 137.324219 76.589844 L 137.324219 66.558594 L 157.359375 66.558594 L 157.359375 56.539062 L 197.445312 56.539062 L 197.445312 66.558594 L 167.382812 66.558594 L 167.382812 76.589844 L 137.324219 76.589844 " fill-opacity="1" fill-rule="nonzero"/><path fill="#925d39" d="M 147.347656 156.773438 L 147.34375 146.746094 L 137.324219 146.75 L 137.316406 136.722656 L 237.519531 136.714844 L 237.523438 146.746094 L 247.542969 146.738281 L 247.550781 156.773438 L 147.347656 156.773438 " fill-opacity="1" fill-rule="nonzero"/><path fill="#925d39" d="M 237.519531 146.746094 L 247.542969 146.746094 L 247.542969 156.769531 L 147.347656 156.769531 L 147.347656 146.746094 L 137.324219 146.746094 L 137.324219 136.722656 L 237.519531 136.722656 L 237.519531 146.746094 " fill-opacity="1" fill-rule="nonzero"/><path fill="#925d39" d="M 147.347656 196.859375 L 147.34375 176.816406 L 157.359375 176.8125 L 157.367188 186.839844 L 227.496094 186.835938 L 227.507812 196.859375 L 147.347656 196.859375 " fill-opacity="1" fill-rule="nonzero"/><path fill="#925d39" d="M 227.496094 186.839844 L 227.496094 196.855469 L 147.347656 196.855469 L 147.347656 176.816406 L 157.359375 176.816406 L 157.359375 186.839844 L 227.496094 186.839844 " fill-opacity="1" fill-rule="nonzero"/><path fill="#925d39" d="M 247.542969 146.75 L 247.539062 136.722656 L 257.554688 136.714844 L 257.5625 146.75 L 247.542969 146.75 " fill-opacity="1" fill-rule="nonzero"/><path fill="#925d39" d="M 257.554688 136.722656 L 257.554688 146.746094 L 247.542969 146.746094 L 247.542969 136.722656 L 257.554688 136.722656 " fill-opacity="1" fill-rule="nonzero"/><path fill="#925d39" d="M 227.496094 186.847656 L 227.492188 176.816406 L 247.542969 176.8125 L 247.550781 186.847656 L 227.496094 186.847656 " fill-opacity="1" fill-rule="nonzero"/><path fill="#925d39" d="M 247.542969 176.816406 L 247.542969 186.839844 L 227.496094 186.839844 L 227.496094 176.816406 L 247.542969 176.816406 " fill-opacity="1" fill-rule="nonzero"/><path fill="#6d2d2b" d="M 127.304688 76.597656 L 127.296875 66.558594 L 117.292969 66.570312 L 117.285156 56.539062 L 147.347656 56.53125 L 147.34375 46.507812 L 167.382812 46.503906 L 167.394531 56.539062 L 157.359375 56.546875 L 157.367188 66.558594 L 137.324219 66.570312 L 137.332031 76.597656 L 127.304688 76.597656 " fill-opacity="1" fill-rule="nonzero"/><path fill="#6d2d2b" d="M 167.382812 46.507812 L 167.382812 56.539062 L 157.359375 56.539062 L 157.359375 66.558594 L 137.324219 66.558594 L 137.324219 76.589844 L 127.304688 76.589844 L 127.304688 66.558594 L 117.292969 66.558594 L 117.292969 56.539062 L 147.347656 56.539062 L 147.347656 46.507812 L 167.382812 46.507812 " fill-opacity="1" fill-rule="nonzero"/><path fill="#6d2d2b" d="M 117.292969 36.503906 L 117.285156 26.472656 L 137.324219 26.464844 L 137.332031 36.503906 L 117.292969 36.503906 " fill-opacity="1" fill-rule="nonzero"/><path fill="#6d2d2b" d="M 137.324219 26.472656 L 137.324219 36.492188 L 117.292969 36.492188 L 117.292969 26.472656 L 137.324219 26.472656 " fill-opacity="1" fill-rule="nonzero"/><path fill="#6d2d2b" d="M 107.265625 146.75 L 107.261719 66.558594 L 117.292969 66.554688 L 117.300781 146.75 L 107.265625 146.75 " fill-opacity="1" fill-rule="nonzero"/><path fill="#6d2d2b" d="M 117.292969 66.558594 L 117.292969 146.746094 L 107.265625 146.746094 L 107.265625 66.558594 L 117.292969 66.558594 " fill-opacity="1" fill-rule="nonzero"/><path fill="#c5c9b1" d="M 217.484375 136.730469 L 217.480469 106.65625 L 137.324219 106.664062 L 137.316406 96.625 L 227.496094 96.621094 L 227.492188 86.605469 L 237.519531 86.597656 L 237.511719 76.589844 L 247.542969 76.582031 L 247.539062 66.558594 L 257.554688 66.554688 L 257.5625 96.625 L 247.542969 96.636719 L 247.550781 116.671875 L 237.519531 116.679688 L 237.523438 126.703125 L 227.496094 126.707031 L 227.507812 136.730469 L 217.484375 136.730469 " fill-opacity="1" fill-rule="nonzero"/><path fill="#c5c9b1" d="M 257.554688 66.558594 L 257.554688 96.625 L 247.542969 96.625 L 247.542969 116.671875 L 237.519531 116.671875 L 237.519531 126.703125 L 227.496094 126.703125 L 227.496094 136.722656 L 217.484375 136.722656 L 217.484375 106.65625 L 137.324219 106.65625 L 137.324219 96.625 L 227.496094 96.625 L 227.496094 86.605469 L 237.519531 86.605469 L 237.519531 76.589844 L 247.542969 76.589844 L 247.542969 66.558594 L 257.554688 66.558594 " fill-opacity="1" fill-rule="nonzero"/><path fill="#c5c9b1" d="M 227.496094 56.546875 L 227.492188 46.507812 L 247.542969 46.503906 L 247.550781 56.546875 L 227.496094 56.546875 " fill-opacity="1" fill-rule="nonzero"/><path fill="#c5c9b1" d="M 227.496094 56.539062 L 227.496094 46.507812 L 247.542969 46.507812 L 247.542969 56.539062 L 227.496094 56.539062 " fill-opacity="1" fill-rule="nonzero"/><path fill="#c5c9b1" d="M 167.382812 186.847656 L 167.378906 176.816406 L 197.445312 176.8125 L 197.4375 166.789062 L 217.484375 166.78125 L 217.496094 176.816406 L 207.460938 176.824219 L 207.46875 186.847656 L 167.382812 186.847656 " fill-opacity="1" fill-rule="nonzero"/><path fill="#c5c9b1" d="M 217.484375 166.789062 L 217.484375 176.816406 L 207.460938 176.816406 L 207.460938 186.839844 L 167.382812 186.839844 L 167.382812 176.816406 L 197.445312 176.816406 L 197.445312 166.789062 L 217.484375 166.789062 " fill-opacity="1" fill-rule="nonzero"/><path fill="#c5c9b1" d="M 117.292969 86.613281 L 117.285156 76.589844 L 127.304688 76.582031 L 127.3125 86.613281 L 117.292969 86.613281 " fill-opacity="1" fill-rule="nonzero"/><path fill="#c5c9b1" d="M 127.304688 76.589844 L 127.304688 86.605469 L 117.292969 86.605469 L 117.292969 76.589844 L 127.304688 76.589844 " fill-opacity="1" fill-rule="nonzero"/><path fill="#c5c9b1" d="M 127.304688 96.636719 L 127.296875 86.605469 L 137.324219 86.597656 L 137.332031 96.636719 L 127.304688 96.636719 " fill-opacity="1" fill-rule="nonzero"/><path fill="#c5c9b1" d="M 137.324219 86.605469 L 137.324219 96.625 L 127.304688 96.625 L 127.304688 86.605469 L 137.324219 86.605469 " fill-opacity="1" fill-rule="nonzero"/><path fill="#c5c9b1" d="M 217.484375 46.515625 L 217.480469 36.492188 L 227.496094 36.488281 L 227.507812 46.515625 L 217.484375 46.515625 " fill-opacity="1" fill-rule="nonzero"/><path fill="#c5c9b1" d="M 227.496094 46.507812 L 217.484375 46.507812 L 217.484375 36.492188 L 227.496094 36.492188 L 227.496094 46.507812 " fill-opacity="1" fill-rule="nonzero"/><path fill="#c5c9b1" d="M 107.265625 56.546875 L 107.261719 46.507812 L 117.292969 46.503906 L 117.300781 56.546875 L 107.265625 56.546875 " fill-opacity="1" fill-rule="nonzero"/><path fill="#c5c9b1" d="M 117.292969 56.539062 L 107.265625 56.539062 L 107.265625 46.507812 L 117.292969 46.507812 L 117.292969 56.539062 " fill-opacity="1" fill-rule="nonzero"/><path fill="#c5c9b1" d="M 127.304688 56.546875 L 127.296875 46.507812 L 137.324219 46.503906 L 137.332031 56.546875 L 127.304688 56.546875 " fill-opacity="1" fill-rule="nonzero"/><path fill="#c5c9b1" d="M 137.324219 56.539062 L 127.304688 56.539062 L 127.304688 46.507812 L 137.324219 46.507812 L 137.324219 56.539062 " fill-opacity="1" fill-rule="nonzero"/><path fill="#c5c9b1" d="M 127.304688 136.730469 L 127.296875 126.703125 L 167.382812 126.691406 L 167.394531 136.730469 L 127.304688 136.730469 " fill-opacity="1" fill-rule="nonzero"/><path fill="#c5c9b1" d="M 167.382812 136.722656 L 127.304688 136.722656 L 127.304688 126.703125 L 167.382812 126.703125 L 167.382812 136.722656 " fill-opacity="1" fill-rule="nonzero"/><path fill="#6d2d2b" d="M 107.265625 46.515625 L 107.261719 36.492188 L 117.292969 36.488281 L 117.300781 46.515625 L 107.265625 46.515625 " fill-opacity="1" fill-rule="nonzero"/><path fill="#6d2d2b" d="M 117.292969 36.492188 L 117.292969 46.507812 L 107.265625 46.507812 L 107.265625 36.492188 L 117.292969 36.492188 " fill-opacity="1" fill-rule="nonzero"/><g clip-path="url(#4975ddd7dd)"><path fill="#6d2d2b" d="M 97.25 66.570312 L 97.242188 46.507812 L 107.265625 46.503906 L 107.273438 66.570312 L 97.25 66.570312 " fill-opacity="1" fill-rule="nonzero"/><path fill="#6d2d2b" d="M 107.265625 46.507812 L 107.265625 66.558594 L 97.25 66.558594 L 97.25 46.507812 L 107.265625 46.507812 " fill-opacity="1" fill-rule="nonzero"/></g><g fill="#00bf63" fill-opacity="1"><g transform="translate(83.841096, 292.486069)"><g><path d="M 24.265625 -24.265625 L 24.265625 -28.421875 L 28.421875 -28.421875 L 28.421875 -24.265625 Z M 0 -4.859375 L 0 -9.015625 L 4.15625 -9.015625 L 4.15625 -4.859375 Z M 4.859375 0 L 4.859375 -4.15625 L 9.015625 -4.15625 L 9.015625 0 Z M 0 -9.703125 L 0 -13.859375 L 4.15625 -13.859375 L 4.15625 -9.703125 Z M 4.859375 -4.859375 L 4.859375 -9.015625 L 9.015625 -9.015625 L 9.015625 -4.859375 Z M 9.703125 0 L 9.703125 -4.15625 L 13.859375 -4.15625 L 13.859375 0 Z M 0 -14.5625 L 0 -18.71875 L 4.15625 -18.71875 L 4.15625 -14.5625 Z M 4.859375 -9.703125 L 4.859375 -13.859375 L 9.015625 -13.859375 L 9.015625 -9.703125 Z M 14.5625 0 L 14.5625 -4.15625 L 18.71875 -4.15625 L 18.71875 0 Z M 0 -19.40625 L 0 -23.578125 L 4.15625 -23.578125 L 4.15625 -19.40625 Z M 4.859375 -14.5625 L 4.859375 -18.71875 L 9.015625 -18.71875 L 9.015625 -14.5625 Z M 19.40625 0 L 19.40625 -4.15625 L 23.578125 -4.15625 L 23.578125 0 Z M 0 -24.265625 L 0 -28.421875 L 4.15625 -28.421875 L 4.15625 -24.265625 Z M 4.859375 -19.40625 L 4.859375 -23.578125 L 9.015625 -23.578125 L 9.015625 -19.40625 Z M 19.40625 -4.859375 L 19.40625 -9.015625 L 23.578125 -9.015625 L 23.578125 -4.859375 Z M 4.859375 -24.265625 L 4.859375 -28.421875 L 9.015625 -28.421875 L 9.015625 -24.265625 Z M 14.5625 -14.5625 L 14.5625 -18.71875 L 18.71875 -18.71875 L 18.71875 -14.5625 Z M 19.40625 -9.703125 L 19.40625 -13.859375 L 23.578125 -13.859375 L 23.578125 -9.703125 Z M 24.265625 -4.859375 L 24.265625 -9.015625 L 28.421875 -9.015625 L 28.421875 -4.859375 Z M 4.859375 -29.125 L 4.859375 -33.28125 L 9.015625 -33.28125 L 9.015625 -29.125 Z M 19.40625 -14.5625 L 19.40625 -18.71875 L 23.578125 -18.71875 L 23.578125 -14.5625 Z M 24.265625 -9.703125 L 24.265625 -13.859375 L 28.421875 -13.859375 L 28.421875 -9.703125 Z M 9.703125 -29.125 L 9.703125 -33.28125 L 13.859375 -33.28125 L 13.859375 -29.125 Z M 24.265625 -14.5625 L 24.265625 -18.71875 L 28.421875 -18.71875 L 28.421875 -14.5625 Z M 14.5625 -29.125 L 14.5625 -33.28125 L 18.71875 -33.28125 L 18.71875 -29.125 Z M 19.40625 -24.265625 L 19.40625 -28.421875 L 23.578125 -28.421875 L 23.578125 -24.265625 Z M 19.40625 -29.125 L 19.40625 -33.28125 L 23.578125 -33.28125 L 23.578125 -29.125 Z M 19.40625 -29.125 "/></g></g></g><g fill="#00bf63" fill-opacity="1"><g transform="translate(117.118868, 292.486069)"><g><path d="M 24.265625 -19.40625 L 24.265625 -23.578125 L 28.421875 -23.578125 L 28.421875 -19.40625 Z M 0 -4.859375 L 0 -9.015625 L 4.15625 -9.015625 L 4.15625 -4.859375 Z M 4.859375 0 L 4.859375 -4.15625 L 9.015625 -4.15625 L 9.015625 0 Z M 0 -9.703125 L 0 -13.859375 L 4.15625 -13.859375 L 4.15625 -9.703125 Z M 4.859375 -4.859375 L 4.859375 -9.015625 L 9.015625 -9.015625 L 9.015625 -4.859375 Z M 9.703125 0 L 9.703125 -4.15625 L 13.859375 -4.15625 L 13.859375 0 Z M 0 -14.5625 L 0 -18.71875 L 4.15625 -18.71875 L 4.15625 -14.5625 Z M 4.859375 -9.703125 L 4.859375 -13.859375 L 9.015625 -13.859375 L 9.015625 -9.703125 Z M 14.5625 0 L 14.5625 -4.15625 L 18.71875 -4.15625 L 18.71875 0 Z M 4.859375 -14.5625 L 4.859375 -18.71875 L 9.015625 -18.71875 L 9.015625 -14.5625 Z M 19.40625 0 L 19.40625 -4.15625 L 23.578125 -4.15625 L 23.578125 0 Z M 4.859375 -19.40625 L 4.859375 -23.578125 L 9.015625 -23.578125 L 9.015625 -19.40625 Z M 19.40625 -4.859375 L 19.40625 -9.015625 L 23.578125 -9.015625 L 23.578125 -4.859375 Z M 24.265625 0 L 24.265625 -4.15625 L 28.421875 -4.15625 L 28.421875 0 Z M 9.703125 -19.40625 L 9.703125 -23.578125 L 13.859375 -23.578125 L 13.859375 -19.40625 Z M 19.40625 -9.703125 L 19.40625 -13.859375 L 23.578125 -13.859375 L 23.578125 -9.703125 Z M 24.265625 -4.859375 L 24.265625 -9.015625 L 28.421875 -9.015625 L 28.421875 -4.859375 Z M 14.5625 -19.40625 L 14.5625 -23.578125 L 18.71875 -23.578125 L 18.71875 -19.40625 Z M 19.40625 -14.5625 L 19.40625 -18.71875 L 23.578125 -18.71875 L 23.578125 -14.5625 Z M 24.265625 -9.703125 L 24.265625 -13.859375 L 28.421875 -13.859375 L 28.421875 -9.703125 Z M 19.40625 -19.40625 L 19.40625 -23.578125 L 23.578125 -23.578125 L 23.578125 -19.40625 Z M 24.265625 -14.5625 L 24.265625 -18.71875 L 28.421875 -18.71875 L 28.421875 -14.5625 Z M 24.265625 -14.5625 "/></g></g></g><g fill="#00bf63" fill-opacity="1"><g transform="translate(150.39664, 292.486069)"><g><path d="M 43.671875 -14.5625 L 43.671875 -18.71875 L 47.84375 -18.71875 L 47.84375 -14.5625 Z M 0 0 L 0 -4.15625 L 4.15625 -4.15625 L 4.15625 0 Z M 0 -4.859375 L 0 -9.015625 L 4.15625 -9.015625 L 4.15625 -4.859375 Z M 4.859375 0 L 4.859375 -4.15625 L 9.015625 -4.15625 L 9.015625 0 Z M 0 -9.703125 L 0 -13.859375 L 4.15625 -13.859375 L 4.15625 -9.703125 Z M 4.859375 -4.859375 L 4.859375 -9.015625 L 9.015625 -9.015625 L 9.015625 -4.859375 Z M 0 -14.5625 L 0 -18.71875 L 4.15625 -18.71875 L 4.15625 -14.5625 Z M 4.859375 -9.703125 L 4.859375 -13.859375 L 9.015625 -13.859375 L 9.015625 -9.703125 Z M 4.859375 -14.5625 L 4.859375 -18.71875 L 9.015625 -18.71875 L 9.015625 -14.5625 Z M 19.40625 0 L 19.40625 -4.15625 L 23.578125 -4.15625 L 23.578125 0 Z M 4.859375 -19.40625 L 4.859375 -23.578125 L 9.015625 -23.578125 L 9.015625 -19.40625 Z M 19.40625 -4.859375 L 19.40625 -9.015625 L 23.578125 -9.015625 L 23.578125 -4.859375 Z M 24.265625 0 L 24.265625 -4.15625 L 28.421875 -4.15625 L 28.421875 0 Z M 9.703125 -19.40625 L 9.703125 -23.578125 L 13.859375 -23.578125 L 13.859375 -19.40625 Z M 19.40625 -9.703125 L 19.40625 -13.859375 L 23.578125 -13.859375 L 23.578125 -9.703125 Z M 24.265625 -4.859375 L 24.265625 -9.015625 L 28.421875 -9.015625 L 28.421875 -4.859375 Z M 14.5625 -19.40625 L 14.5625 -23.578125 L 18.71875 -23.578125 L 18.71875 -19.40625 Z M 19.40625 -14.5625 L 19.40625 -18.71875 L 23.578125 -18.71875 L 23.578125 -14.5625 Z M 24.265625 -9.703125 L 24.265625 -13.859375 L 28.421875 -13.859375 L 28.421875 -9.703125 Z M 24.265625 -14.5625 L 24.265625 -18.71875 L 28.421875 -18.71875 L 28.421875 -14.5625 Z M 38.828125 0 L 38.828125 -4.15625 L 42.984375 -4.15625 L 42.984375 0 Z M 38.828125 -4.859375 L 38.828125 -9.015625 L 42.984375 -9.015625 L 42.984375 -4.859375 Z M 43.671875 0 L 43.671875 -4.15625 L 47.84375 -4.15625 L 47.84375 0 Z M 29.125 -19.40625 L 29.125 -23.578125 L 33.28125 -23.578125 L 33.28125 -19.40625 Z M 38.828125 -9.703125 L 38.828125 -13.859375 L 42.984375 -13.859375 L 42.984375 -9.703125 Z M 43.671875 -4.859375 L 43.671875 -9.015625 L 47.84375 -9.015625 L 47.84375 -4.859375 Z M 33.96875 -19.40625 L 33.96875 -23.578125 L 38.125 -23.578125 L 38.125 -19.40625 Z M 38.828125 -14.5625 L 38.828125 -18.71875 L 42.984375 -18.71875 L 42.984375 -14.5625 Z M 43.671875 -9.703125 L 43.671875 -13.859375 L 47.84375 -13.859375 L 47.84375 -9.703125 Z M 38.828125 -19.40625 L 38.828125 -23.578125 L 42.984375 -23.578125 L 42.984375 -19.40625 Z M 38.828125 -19.40625 "/></g></g></g><g fill="#00bf63" fill-opacity="1"><g transform="translate(203.086436, 292.486069)"><g><path d="M 24.265625 -14.5625 L 24.265625 -18.71875 L 28.421875 -18.71875 L 28.421875 -14.5625 Z M 0 -4.859375 L 0 -9.015625 L 4.15625 -9.015625 L 4.15625 -4.859375 Z M 4.859375 0 L 4.859375 -4.15625 L 9.015625 -4.15625 L 9.015625 0 Z M 0 -9.703125 L 0 -13.859375 L 4.15625 -13.859375 L 4.15625 -9.703125 Z M 4.859375 -4.859375 L 4.859375 -9.015625 L 9.015625 -9.015625 L 9.015625 -4.859375 Z M 9.703125 0 L 9.703125 -4.15625 L 13.859375 -4.15625 L 13.859375 0 Z M 0 -14.5625 L 0 -18.71875 L 4.15625 -18.71875 L 4.15625 -14.5625 Z M 4.859375 -9.703125 L 4.859375 -13.859375 L 9.015625 -13.859375 L 9.015625 -9.703125 Z M 14.5625 0 L 14.5625 -4.15625 L 18.71875 -4.15625 L 18.71875 0 Z M 4.859375 -14.5625 L 4.859375 -18.71875 L 9.015625 -18.71875 L 9.015625 -14.5625 Z M 9.703125 -9.703125 L 9.703125 -13.859375 L 13.859375 -13.859375 L 13.859375 -9.703125 Z M 19.40625 0 L 19.40625 -4.15625 L 23.578125 -4.15625 L 23.578125 0 Z M 4.859375 -19.40625 L 4.859375 -23.578125 L 9.015625 -23.578125 L 9.015625 -19.40625 Z M 14.5625 -9.703125 L 14.5625 -13.859375 L 18.71875 -13.859375 L 18.71875 -9.703125 Z M 9.703125 -19.40625 L 9.703125 -23.578125 L 13.859375 -23.578125 L 13.859375 -19.40625 Z M 19.40625 -9.703125 L 19.40625 -13.859375 L 23.578125 -13.859375 L 23.578125 -9.703125 Z M 14.5625 -19.40625 L 14.5625 -23.578125 L 18.71875 -23.578125 L 18.71875 -19.40625 Z M 19.40625 -14.5625 L 19.40625 -18.71875 L 23.578125 -18.71875 L 23.578125 -14.5625 Z M 24.265625 -9.703125 L 24.265625 -13.859375 L 28.421875 -13.859375 L 28.421875 -9.703125 Z M 19.40625 -19.40625 L 19.40625 -23.578125 L 23.578125 -23.578125 L 23.578125 -19.40625 Z M 19.40625 -19.40625 "/></g></g></g><g fill="#00bf63" fill-opacity="1"><g transform="translate(236.364209, 292.486069)"><g/></g></g><g fill="#00bf63" fill-opacity="1"><g transform="translate(253.003095, 292.486069)"><g><path d="M 24.265625 -24.265625 L 24.265625 -28.421875 L 28.421875 -28.421875 L 28.421875 -24.265625 Z M 0 -4.859375 L 0 -9.015625 L 4.15625 -9.015625 L 4.15625 -4.859375 Z M 4.859375 0 L 4.859375 -4.15625 L 9.015625 -4.15625 L 9.015625 0 Z M 0 -9.703125 L 0 -13.859375 L 4.15625 -13.859375 L 4.15625 -9.703125 Z M 4.859375 -4.859375 L 4.859375 -9.015625 L 9.015625 -9.015625 L 9.015625 -4.859375 Z M 9.703125 0 L 9.703125 -4.15625 L 13.859375 -4.15625 L 13.859375 0 Z M 4.859375 -9.703125 L 4.859375 -13.859375 L 9.015625 -13.859375 L 9.015625 -9.703125 Z M 14.5625 0 L 14.5625 -4.15625 L 18.71875 -4.15625 L 18.71875 0 Z M 0 -19.40625 L 0 -23.578125 L 4.15625 -23.578125 L 4.15625 -19.40625 Z M 4.859375 -14.5625 L 4.859375 -18.71875 L 9.015625 -18.71875 L 9.015625 -14.5625 Z M 19.40625 0 L 19.40625 -4.15625 L 23.578125 -4.15625 L 23.578125 0 Z M 0 -24.265625 L 0 -28.421875 L 4.15625 -28.421875 L 4.15625 -24.265625 Z M 4.859375 -19.40625 L 4.859375 -23.578125 L 9.015625 -23.578125 L 9.015625 -19.40625 Z M 9.703125 -14.5625 L 9.703125 -18.71875 L 13.859375 -18.71875 L 13.859375 -14.5625 Z M 14.5625 -9.703125 L 14.5625 -13.859375 L 18.71875 -13.859375 L 18.71875 -9.703125 Z M 19.40625 -4.859375 L 19.40625 -9.015625 L 23.578125 -9.015625 L 23.578125 -4.859375 Z M 4.859375 -24.265625 L 4.859375 -28.421875 L 9.015625 -28.421875 L 9.015625 -24.265625 Z M 14.5625 -14.5625 L 14.5625 -18.71875 L 18.71875 -18.71875 L 18.71875 -14.5625 Z M 24.265625 -4.859375 L 24.265625 -9.015625 L 28.421875 -9.015625 L 28.421875 -4.859375 Z M 29.125 0 L 29.125 -4.15625 L 33.28125 -4.15625 L 33.28125 0 Z M 4.859375 -29.125 L 4.859375 -33.28125 L 9.015625 -33.28125 L 9.015625 -29.125 Z M 19.40625 -14.5625 L 19.40625 -18.71875 L 23.578125 -18.71875 L 23.578125 -14.5625 Z M 9.703125 -29.125 L 9.703125 -33.28125 L 13.859375 -33.28125 L 13.859375 -29.125 Z M 19.40625 -19.40625 L 19.40625 -23.578125 L 23.578125 -23.578125 L 23.578125 -19.40625 Z M 29.125 -9.703125 L 29.125 -13.859375 L 33.28125 -13.859375 L 33.28125 -9.703125 Z M 14.5625 -29.125 L 14.5625 -33.28125 L 18.71875 -33.28125 L 18.71875 -29.125 Z M 19.40625 -24.265625 L 19.40625 -28.421875 L 23.578125 -28.421875 L 23.578125 -24.265625 Z M 24.265625 -19.40625 L 24.265625 -23.578125 L 28.421875 -23.578125 L 28.421875 -19.40625 Z M 19.40625 -29.125 L 19.40625 -33.28125 L 23.578125 -33.28125 L 23.578125 -29.125 Z M 19.40625 -29.125 "/></g></g></g><g fill="#00bf63" fill-opacity="1"><g transform="translate(36.695718, 347.610896)"><g><path d="M 24.265625 -24.265625 L 24.265625 -28.421875 L 28.421875 -28.421875 L 28.421875 -24.265625 Z M 0 -4.859375 L 0 -9.015625 L 4.15625 -9.015625 L 4.15625 -4.859375 Z M 4.859375 0 L 4.859375 -4.15625 L 9.015625 -4.15625 L 9.015625 0 Z M 0 -9.703125 L 0 -13.859375 L 4.15625 -13.859375 L 4.15625 -9.703125 Z M 4.859375 -4.859375 L 4.859375 -9.015625 L 9.015625 -9.015625 L 9.015625 -4.859375 Z M 9.703125 0 L 9.703125 -4.15625 L 13.859375 -4.15625 L 13.859375 0 Z M 0 -14.5625 L 0 -18.71875 L 4.15625 -18.71875 L 4.15625 -14.5625 Z M 4.859375 -9.703125 L 4.859375 -13.859375 L 9.015625 -13.859375 L 9.015625 -9.703125 Z M 14.5625 0 L 14.5625 -4.15625 L 18.71875 -4.15625 L 18.71875 0 Z M 0 -19.40625 L 0 -23.578125 L 4.15625 -23.578125 L 4.15625 -19.40625 Z M 4.859375 -14.5625 L 4.859375 -18.71875 L 9.015625 -18.71875 L 9.015625 -14.5625 Z M 19.40625 0 L 19.40625 -4.15625 L 23.578125 -4.15625 L 23.578125 0 Z M 0 -24.265625 L 0 -28.421875 L 4.15625 -28.421875 L 4.15625 -24.265625 Z M 4.859375 -19.40625 L 4.859375 -23.578125 L 9.015625 -23.578125 L 9.015625 -19.40625 Z M 19.40625 -4.859375 L 19.40625 -9.015625 L 23.578125 -9.015625 L 23.578125 -4.859375 Z M 4.859375 -24.265625 L 4.859375 -28.421875 L 9.015625 -28.421875 L 9.015625 -24.265625 Z M 14.5625 -14.5625 L 14.5625 -18.71875 L 18.71875 -18.71875 L 18.71875 -14.5625 Z M 19.40625 -9.703125 L 19.40625 -13.859375 L 23.578125 -13.859375 L 23.578125 -9.703125 Z M 24.265625 -4.859375 L 24.265625 -9.015625 L 28.421875 -9.015625 L 28.421875 -4.859375 Z M 4.859375 -29.125 L 4.859375 -33.28125 L 9.015625 -33.28125 L 9.015625 -29.125 Z M 19.40625 -14.5625 L 19.40625 -18.71875 L 23.578125 -18.71875 L 23.578125 -14.5625 Z M 24.265625 -9.703125 L 24.265625 -13.859375 L 28.421875 -13.859375 L 28.421875 -9.703125 Z M 9.703125 -29.125 L 9.703125 -33.28125 L 13.859375 -33.28125 L 13.859375 -29.125 Z M 24.265625 -14.5625 L 24.265625 -18.71875 L 28.421875 -18.71875 L 28.421875 -14.5625 Z M 14.5625 -29.125 L 14.5625 -33.28125 L 18.71875 -33.28125 L 18.71875 -29.125 Z M 19.40625 -24.265625 L 19.40625 -28.421875 L 23.578125 -28.421875 L 23.578125 -24.265625 Z M 19.40625 -29.125 L 19.40625 -33.28125 L 23.578125 -33.28125 L 23.578125 -29.125 Z M 19.40625 -29.125 "/></g></g></g><g fill="#00bf63" fill-opacity="1"><g transform="translate(69.97349, 347.610896)"><g><path d="M 24.265625 -14.5625 L 24.265625 -18.71875 L 28.421875 -18.71875 L 28.421875 -14.5625 Z M 0 0 L 0 -4.15625 L 4.15625 -4.15625 L 4.15625 0 Z M 0 -4.859375 L 0 -9.015625 L 4.15625 -9.015625 L 4.15625 -4.859375 Z M 4.859375 0 L 4.859375 -4.15625 L 9.015625 -4.15625 L 9.015625 0 Z M 0 -9.703125 L 0 -13.859375 L 4.15625 -13.859375 L 4.15625 -9.703125 Z M 4.859375 -4.859375 L 4.859375 -9.015625 L 9.015625 -9.015625 L 9.015625 -4.859375 Z M 0 -14.5625 L 0 -18.71875 L 4.15625 -18.71875 L 4.15625 -14.5625 Z M 4.859375 -9.703125 L 4.859375 -13.859375 L 9.015625 -13.859375 L 9.015625 -9.703125 Z M 4.859375 -14.5625 L 4.859375 -18.71875 L 9.015625 -18.71875 L 9.015625 -14.5625 Z M 4.859375 -19.40625 L 4.859375 -23.578125 L 9.015625 -23.578125 L 9.015625 -19.40625 Z M 9.703125 -19.40625 L 9.703125 -23.578125 L 13.859375 -23.578125 L 13.859375 -19.40625 Z M 19.40625 -9.703125 L 19.40625 -13.859375 L 23.578125 -13.859375 L 23.578125 -9.703125 Z M 14.5625 -19.40625 L 14.5625 -23.578125 L 18.71875 -23.578125 L 18.71875 -19.40625 Z M 19.40625 -14.5625 L 19.40625 -18.71875 L 23.578125 -18.71875 L 23.578125 -14.5625 Z M 24.265625 -9.703125 L 24.265625 -13.859375 L 28.421875 -13.859375 L 28.421875 -9.703125 Z M 19.40625 -19.40625 L 19.40625 -23.578125 L 23.578125 -23.578125 L 23.578125 -19.40625 Z M 19.40625 -19.40625 "/></g></g></g><g fill="#00bf63" fill-opacity="1"><g transform="translate(103.251262, 347.610896)"><g><path d="M 9.703125 -29.125 L 9.703125 -33.28125 L 13.859375 -33.28125 L 13.859375 -29.125 Z M 0 0 L 0 -4.15625 L 4.15625 -4.15625 L 4.15625 0 Z M 4.859375 0 L 4.859375 -4.15625 L 9.015625 -4.15625 L 9.015625 0 Z M 4.859375 -4.859375 L 4.859375 -9.015625 L 9.015625 -9.015625 L 9.015625 -4.859375 Z M 9.703125 0 L 9.703125 -4.15625 L 13.859375 -4.15625 L 13.859375 0 Z M 4.859375 -9.703125 L 4.859375 -13.859375 L 9.015625 -13.859375 L 9.015625 -9.703125 Z M 9.703125 -4.859375 L 9.703125 -9.015625 L 13.859375 -9.015625 L 13.859375 -4.859375 Z M 14.5625 0 L 14.5625 -4.15625 L 18.71875 -4.15625 L 18.71875 0 Z M 0 -19.40625 L 0 -23.578125 L 4.15625 -23.578125 L 4.15625 -19.40625 Z M 4.859375 -14.5625 L 4.859375 -18.71875 L 9.015625 -18.71875 L 9.015625 -14.5625 Z M 9.703125 -9.703125 L 9.703125 -13.859375 L 13.859375 -13.859375 L 13.859375 -9.703125 Z M 4.859375 -19.40625 L 4.859375 -23.578125 L 9.015625 -23.578125 L 9.015625 -19.40625 Z M 9.703125 -14.5625 L 9.703125 -18.71875 L 13.859375 -18.71875 L 13.859375 -14.5625 Z M 9.703125 -19.40625 L 9.703125 -23.578125 L 13.859375 -23.578125 L 13.859375 -19.40625 Z M 4.859375 -29.125 L 4.859375 -33.28125 L 9.015625 -33.28125 L 9.015625 -29.125 Z M 14.5625 -19.40625 L 14.5625 -23.578125 L 18.71875 -23.578125 L 18.71875 -19.40625 Z M 14.5625 -19.40625 "/></g></g></g><g fill="#00bf63" fill-opacity="1"><g transform="translate(126.823015, 347.610896)"><g><path d="M 24.265625 -14.5625 L 24.265625 -18.71875 L 28.421875 -18.71875 L 28.421875 -14.5625 Z M 0 0 L 0 -4.15625 L 4.15625 -4.15625 L 4.15625 0 Z M 0 -4.859375 L 0 -9.015625 L 4.15625 -9.015625 L 4.15625 -4.859375 Z M 4.859375 0 L 4.859375 -4.15625 L 9.015625 -4.15625 L 9.015625 0 Z M 0 -9.703125 L 0 -13.859375 L 4.15625 -13.859375 L 4.15625 -9.703125 Z M 4.859375 -4.859375 L 4.859375 -9.015625 L 9.015625 -9.015625 L 9.015625 -4.859375 Z M 0 -14.5625 L 0 -18.71875 L 4.15625 -18.71875 L 4.15625 -14.5625 Z M 4.859375 -9.703125 L 4.859375 -13.859375 L 9.015625 -13.859375 L 9.015625 -9.703125 Z M 4.859375 -14.5625 L 4.859375 -18.71875 L 9.015625 -18.71875 L 9.015625 -14.5625 Z M 19.40625 0 L 19.40625 -4.15625 L 23.578125 -4.15625 L 23.578125 0 Z M 4.859375 -19.40625 L 4.859375 -23.578125 L 9.015625 -23.578125 L 9.015625 -19.40625 Z M 19.40625 -4.859375 L 19.40625 -9.015625 L 23.578125 -9.015625 L 23.578125 -4.859375 Z M 24.265625 0 L 24.265625 -4.15625 L 28.421875 -4.15625 L 28.421875 0 Z M 9.703125 -19.40625 L 9.703125 -23.578125 L 13.859375 -23.578125 L 13.859375 -19.40625 Z M 19.40625 -9.703125 L 19.40625 -13.859375 L 23.578125 -13.859375 L 23.578125 -9.703125 Z M 24.265625 -4.859375 L 24.265625 -9.015625 L 28.421875 -9.015625 L 28.421875 -4.859375 Z M 14.5625 -19.40625 L 14.5625 -23.578125 L 18.71875 -23.578125 L 18.71875 -19.40625 Z M 19.40625 -14.5625 L 19.40625 -18.71875 L 23.578125 -18.71875 L 23.578125 -14.5625 Z M 24.265625 -9.703125 L 24.265625 -13.859375 L 28.421875 -13.859375 L 28.421875 -9.703125 Z M 19.40625 -19.40625 L 19.40625 -23.578125 L 23.578125 -23.578125 L 23.578125 -19.40625 Z M 19.40625 -19.40625 "/></g></g></g><g fill="#00bf63" fill-opacity="1"><g transform="translate(160.100787, 347.610896)"><g><path d="M 24.265625 -29.125 L 24.265625 -33.28125 L 28.421875 -33.28125 L 28.421875 -29.125 Z M 0 -4.859375 L 0 -9.015625 L 4.15625 -9.015625 L 4.15625 -4.859375 Z M 4.859375 0 L 4.859375 -4.15625 L 9.015625 -4.15625 L 9.015625 0 Z M 0 -9.703125 L 0 -13.859375 L 4.15625 -13.859375 L 4.15625 -9.703125 Z M 4.859375 -4.859375 L 4.859375 -9.015625 L 9.015625 -9.015625 L 9.015625 -4.859375 Z M 9.703125 0 L 9.703125 -4.15625 L 13.859375 -4.15625 L 13.859375 0 Z M 0 -14.5625 L 0 -18.71875 L 4.15625 -18.71875 L 4.15625 -14.5625 Z M 4.859375 -9.703125 L 4.859375 -13.859375 L 9.015625 -13.859375 L 9.015625 -9.703125 Z M 14.5625 0 L 14.5625 -4.15625 L 18.71875 -4.15625 L 18.71875 0 Z M 4.859375 -14.5625 L 4.859375 -18.71875 L 9.015625 -18.71875 L 9.015625 -14.5625 Z M 19.40625 0 L 19.40625 -4.15625 L 23.578125 -4.15625 L 23.578125 0 Z M 4.859375 -19.40625 L 4.859375 -23.578125 L 9.015625 -23.578125 L 9.015625 -19.40625 Z M 19.40625 -4.859375 L 19.40625 -9.015625 L 23.578125 -9.015625 L 23.578125 -4.859375 Z M 24.265625 0 L 24.265625 -4.15625 L 28.421875 -4.15625 L 28.421875 0 Z M 9.703125 -19.40625 L 9.703125 -23.578125 L 13.859375 -23.578125 L 13.859375 -19.40625 Z M 19.40625 -9.703125 L 19.40625 -13.859375 L 23.578125 -13.859375 L 23.578125 -9.703125 Z M 24.265625 -4.859375 L 24.265625 -9.015625 L 28.421875 -9.015625 L 28.421875 -4.859375 Z M 14.5625 -19.40625 L 14.5625 -23.578125 L 18.71875 -23.578125 L 18.71875 -19.40625 Z M 19.40625 -14.5625 L 19.40625 -18.71875 L 23.578125 -18.71875 L 23.578125 -14.5625 Z M 24.265625 -9.703125 L 24.265625 -13.859375 L 28.421875 -13.859375 L 28.421875 -9.703125 Z M 19.40625 -19.40625 L 19.40625 -23.578125 L 23.578125 -23.578125 L 23.578125 -19.40625 Z M 24.265625 -14.5625 L 24.265625 -18.71875 L 28.421875 -18.71875 L 28.421875 -14.5625 Z M 19.40625 -24.265625 L 19.40625 -28.421875 L 23.578125 -28.421875 L 23.578125 -24.265625 Z M 24.265625 -19.40625 L 24.265625 -23.578125 L 28.421875 -23.578125 L 28.421875 -19.40625 Z M 19.40625 -29.125 L 19.40625 -33.28125 L 23.578125 -33.28125 L 23.578125 -29.125 Z M 24.265625 -24.265625 L 24.265625 -28.421875 L 28.421875 -28.421875 L 28.421875 -24.265625 Z M 24.265625 -24.265625 "/></g></g></g><g fill="#00bf63" fill-opacity="1"><g transform="translate(193.378559, 347.610896)"><g/></g></g><g fill="#00bf63" fill-opacity="1"><g transform="translate(210.017445, 347.610896)"><g><path d="M 24.265625 -24.265625 L 24.265625 -28.421875 L 28.421875 -28.421875 L 28.421875 -24.265625 Z M 0 -4.859375 L 0 -9.015625 L 4.15625 -9.015625 L 4.15625 -4.859375 Z M 4.859375 0 L 4.859375 -4.15625 L 9.015625 -4.15625 L 9.015625 0 Z M 0 -9.703125 L 0 -13.859375 L 4.15625 -13.859375 L 4.15625 -9.703125 Z M 4.859375 -4.859375 L 4.859375 -9.015625 L 9.015625 -9.015625 L 9.015625 -4.859375 Z M 9.703125 0 L 9.703125 -4.15625 L 13.859375 -4.15625 L 13.859375 0 Z M 0 -14.5625 L 0 -18.71875 L 4.15625 -18.71875 L 4.15625 -14.5625 Z M 4.859375 -9.703125 L 4.859375 -13.859375 L 9.015625 -13.859375 L 9.015625 -9.703125 Z M 14.5625 0 L 14.5625 -4.15625 L 18.71875 -4.15625 L 18.71875 0 Z M 0 -19.40625 L 0 -23.578125 L 4.15625 -23.578125 L 4.15625 -19.40625 Z M 4.859375 -14.5625 L 4.859375 -18.71875 L 9.015625 -18.71875 L 9.015625 -14.5625 Z M 19.40625 0 L 19.40625 -4.15625 L 23.578125 -4.15625 L 23.578125 0 Z M 0 -24.265625 L 0 -28.421875 L 4.15625 -28.421875 L 4.15625 -24.265625 Z M 4.859375 -19.40625 L 4.859375 -23.578125 L 9.015625 -23.578125 L 9.015625 -19.40625 Z M 19.40625 -4.859375 L 19.40625 -9.015625 L 23.578125 -9.015625 L 23.578125 -4.859375 Z M 4.859375 -24.265625 L 4.859375 -28.421875 L 9.015625 -28.421875 L 9.015625 -24.265625 Z M 24.265625 -4.859375 L 24.265625 -9.015625 L 28.421875 -9.015625 L 28.421875 -4.859375 Z M 4.859375 -29.125 L 4.859375 -33.28125 L 9.015625 -33.28125 L 9.015625 -29.125 Z M 9.703125 -29.125 L 9.703125 -33.28125 L 13.859375 -33.28125 L 13.859375 -29.125 Z M 14.5625 -29.125 L 14.5625 -33.28125 L 18.71875 -33.28125 L 18.71875 -29.125 Z M 19.40625 -24.265625 L 19.40625 -28.421875 L 23.578125 -28.421875 L 23.578125 -24.265625 Z M 19.40625 -29.125 L 19.40625 -33.28125 L 23.578125 -33.28125 L 23.578125 -29.125 Z M 19.40625 -29.125 "/></g></g></g><g fill="#00bf63" fill-opacity="1"><g transform="translate(243.295218, 347.610896)"><g><path d="M 24.265625 -19.40625 L 24.265625 -23.578125 L 28.421875 -23.578125 L 28.421875 -19.40625 Z M 0 -4.859375 L 0 -9.015625 L 4.15625 -9.015625 L 4.15625 -4.859375 Z M 4.859375 0 L 4.859375 -4.15625 L 9.015625 -4.15625 L 9.015625 0 Z M 0 -9.703125 L 0 -13.859375 L 4.15625 -13.859375 L 4.15625 -9.703125 Z M 4.859375 -4.859375 L 4.859375 -9.015625 L 9.015625 -9.015625 L 9.015625 -4.859375 Z M 9.703125 0 L 9.703125 -4.15625 L 13.859375 -4.15625 L 13.859375 0 Z M 0 -14.5625 L 0 -18.71875 L 4.15625 -18.71875 L 4.15625 -14.5625 Z M 4.859375 -9.703125 L 4.859375 -13.859375 L 9.015625 -13.859375 L 9.015625 -9.703125 Z M 14.5625 0 L 14.5625 -4.15625 L 18.71875 -4.15625 L 18.71875 0 Z M 4.859375 -14.5625 L 4.859375 -18.71875 L 9.015625 -18.71875 L 9.015625 -14.5625 Z M 19.40625 0 L 19.40625 -4.15625 L 23.578125 -4.15625 L 23.578125 0 Z M 4.859375 -19.40625 L 4.859375 -23.578125 L 9.015625 -23.578125 L 9.015625 -19.40625 Z M 19.40625 -4.859375 L 19.40625 -9.015625 L 23.578125 -9.015625 L 23.578125 -4.859375 Z M 24.265625 0 L 24.265625 -4.15625 L 28.421875 -4.15625 L 28.421875 0 Z M 9.703125 -19.40625 L 9.703125 -23.578125 L 13.859375 -23.578125 L 13.859375 -19.40625 Z M 19.40625 -9.703125 L 19.40625 -13.859375 L 23.578125 -13.859375 L 23.578125 -9.703125 Z M 24.265625 -4.859375 L 24.265625 -9.015625 L 28.421875 -9.015625 L 28.421875 -4.859375 Z M 14.5625 -19.40625 L 14.5625 -23.578125 L 18.71875 -23.578125 L 18.71875 -19.40625 Z M 19.40625 -14.5625 L 19.40625 -18.71875 L 23.578125 -18.71875 L 23.578125 -14.5625 Z M 24.265625 -9.703125 L 24.265625 -13.859375 L 28.421875 -13.859375 L 28.421875 -9.703125 Z M 19.40625 -19.40625 L 19.40625 -23.578125 L 23.578125 -23.578125 L 23.578125 -19.40625 Z M 24.265625 -14.5625 L 24.265625 -18.71875 L 28.421875 -18.71875 L 28.421875 -14.5625 Z M 24.265625 -14.5625 "/></g></g></g><g fill="#00bf63" fill-opacity="1"><g transform="translate(276.57299, 347.610896)"><g><path d="M 19.40625 -24.265625 L 19.40625 -28.421875 L 23.578125 -28.421875 L 23.578125 -24.265625 Z M 0 0 L 0 -4.15625 L 4.15625 -4.15625 L 4.15625 0 Z M 0 -4.859375 L 0 -9.015625 L 4.15625 -9.015625 L 4.15625 -4.859375 Z M 4.859375 0 L 4.859375 -4.15625 L 9.015625 -4.15625 L 9.015625 0 Z M 0 -9.703125 L 0 -13.859375 L 4.15625 -13.859375 L 4.15625 -9.703125 Z M 4.859375 -4.859375 L 4.859375 -9.015625 L 9.015625 -9.015625 L 9.015625 -4.859375 Z M 0 -14.5625 L 0 -18.71875 L 4.15625 -18.71875 L 4.15625 -14.5625 Z M 4.859375 -9.703125 L 4.859375 -13.859375 L 9.015625 -13.859375 L 9.015625 -9.703125 Z M 0 -19.40625 L 0 -23.578125 L 4.15625 -23.578125 L 4.15625 -19.40625 Z M 4.859375 -14.5625 L 4.859375 -18.71875 L 9.015625 -18.71875 L 9.015625 -14.5625 Z M 0 -24.265625 L 0 -28.421875 L 4.15625 -28.421875 L 4.15625 -24.265625 Z M 4.859375 -19.40625 L 4.859375 -23.578125 L 9.015625 -23.578125 L 9.015625 -19.40625 Z M 9.703125 -14.5625 L 9.703125 -18.71875 L 13.859375 -18.71875 L 13.859375 -14.5625 Z M 4.859375 -24.265625 L 4.859375 -28.421875 L 9.015625 -28.421875 L 9.015625 -24.265625 Z M 14.5625 -14.5625 L 14.5625 -18.71875 L 18.71875 -18.71875 L 18.71875 -14.5625 Z M 4.859375 -29.125 L 4.859375 -33.28125 L 9.015625 -33.28125 L 9.015625 -29.125 Z M 9.703125 -29.125 L 9.703125 -33.28125 L 13.859375 -33.28125 L 13.859375 -29.125 Z M 14.5625 -29.125 L 14.5625 -33.28125 L 18.71875 -33.28125 L 18.71875 -29.125 Z M 14.5625 -29.125 "/></g></g></g><g fill="#00bf63" fill-opacity="1"><g transform="translate(304.99776, 347.610896)"><g><path d="M 14.5625 -33.96875 L 14.5625 -38.125 L 18.71875 -38.125 L 18.71875 -33.96875 Z M 0 -4.859375 L 0 -9.015625 L 4.15625 -9.015625 L 4.15625 -4.859375 Z M 4.859375 0 L 4.859375 -4.15625 L 9.015625 -4.15625 L 9.015625 0 Z M 0 -9.703125 L 0 -13.859375 L 4.15625 -13.859375 L 4.15625 -9.703125 Z M 4.859375 -4.859375 L 4.859375 -9.015625 L 9.015625 -9.015625 L 9.015625 -4.859375 Z M 9.703125 0 L 9.703125 -4.15625 L 13.859375 -4.15625 L 13.859375 0 Z M 0 -14.5625 L 0 -18.71875 L 4.15625 -18.71875 L 4.15625 -14.5625 Z M 4.859375 -9.703125 L 4.859375 -13.859375 L 9.015625 -13.859375 L 9.015625 -9.703125 Z M 14.5625 0 L 14.5625 -4.15625 L 18.71875 -4.15625 L 18.71875 0 Z M 4.859375 -14.5625 L 4.859375 -18.71875 L 9.015625 -18.71875 L 9.015625 -14.5625 Z M 9.703125 -9.703125 L 9.703125 -13.859375 L 13.859375 -13.859375 L 13.859375 -9.703125 Z M 19.40625 0 L 19.40625 -4.15625 L 23.578125 -4.15625 L 23.578125 0 Z M 4.859375 -19.40625 L 4.859375 -23.578125 L 9.015625 -23.578125 L 9.015625 -19.40625 Z M 14.5625 -9.703125 L 14.5625 -13.859375 L 18.71875 -13.859375 L 18.71875 -9.703125 Z M 9.703125 -19.40625 L 9.703125 -23.578125 L 13.859375 -23.578125 L 13.859375 -19.40625 Z M 19.40625 -9.703125 L 19.40625 -13.859375 L 23.578125 -13.859375 L 23.578125 -9.703125 Z M 14.5625 -19.40625 L 14.5625 -23.578125 L 18.71875 -23.578125 L 18.71875 -19.40625 Z M 19.40625 -14.5625 L 19.40625 -18.71875 L 23.578125 -18.71875 L 23.578125 -14.5625 Z M 24.265625 -9.703125 L 24.265625 -13.859375 L 28.421875 -13.859375 L 28.421875 -9.703125 Z M 9.703125 -29.125 L 9.703125 -33.28125 L 13.859375 -33.28125 L 13.859375 -29.125 Z M 19.40625 -19.40625 L 19.40625 -23.578125 L 23.578125 -23.578125 L 23.578125 -19.40625 Z M 24.265625 -14.5625 L 24.265625 -18.71875 L 28.421875 -18.71875 L 28.421875 -14.5625 Z M 24.265625 -14.5625 "/></g></g></g></svg>