<svg xmlns="http://www.w3.org/2000/svg" xmlns:xlink="http://www.w3.org/1999/xlink" width="250" zoomAndPan="magnify" viewBox="0 0 187.5 187.499992" height="250" preserveAspectRatio="xMidYMid meet" version="1.0"><defs><g/><clipPath id="40b6646244"><path d="M 80.132812 108 L 106.679688 108 L 106.679688 111.257812 L 80.132812 111.257812 Z M 80.132812 108 " clip-rule="nonzero"/></clipPath><clipPath id="7c638a9c1d"><path d="M 119.605469 49.109375 L 122.941406 49.109375 L 122.941406 55.78125 L 119.605469 55.78125 Z M 119.605469 49.109375 " clip-rule="nonzero"/></clipPath><clipPath id="3447cf81d8"><path d="M 77 39.449219 L 110 39.449219 L 110 43 L 77 43 Z M 77 39.449219 " clip-rule="nonzero"/></clipPath><clipPath id="117f46b2fe"><path d="M 63.917969 49 L 68 49 L 68 56 L 63.917969 56 Z M 63.917969 49 " clip-rule="nonzero"/></clipPath></defs><path fill="#ffffff" d="M 113.738281 80.910156 L 105.332031 80.910156 L 105.332031 66.738281 L 113.738281 66.738281 L 113.738281 80.910156 " fill-opacity="1" fill-rule="nonzero"/><path fill="#ffffff" d="M 83.628906 94.949219 L 83.628906 91.679688 L 80.359375 91.683594 L 80.355469 85.152344 L 106.558594 85.148438 L 106.5625 88.414062 L 96.734375 88.417969 L 96.738281 91.679688 L 86.910156 91.683594 L 86.910156 94.949219 L 83.628906 94.949219 " fill-opacity="1" fill-rule="nonzero"/><path fill="#ffffff" d="M 83.628906 94.945312 L 83.628906 91.679688 L 80.359375 91.679688 L 80.359375 85.152344 L 106.558594 85.152344 L 106.558594 88.414062 L 96.734375 88.414062 L 96.734375 91.679688 L 86.910156 91.679688 L 86.910156 94.945312 L 83.628906 94.945312 " fill-opacity="1" fill-rule="nonzero"/><path fill="#ffffff" d="M 113.113281 75.363281 L 113.113281 65.566406 L 116.386719 65.5625 L 116.390625 75.363281 L 113.113281 75.363281 " fill-opacity="1" fill-rule="nonzero"/><path fill="#ffffff" d="M 113.113281 65.566406 L 116.386719 65.566406 L 116.386719 75.359375 L 113.113281 75.359375 L 113.113281 65.566406 " fill-opacity="1" fill-rule="nonzero"/><path fill="#ffffff" d="M 80.359375 108.003906 L 80.355469 104.738281 L 77.082031 104.738281 L 77.078125 101.472656 L 73.804688 101.476562 L 73.804688 91.679688 L 77.082031 91.679688 L 77.082031 94.945312 L 80.359375 94.941406 L 80.359375 98.207031 L 106.558594 98.203125 L 106.558594 94.945312 L 113.113281 94.941406 L 113.117188 101.472656 L 109.835938 101.476562 L 109.839844 104.738281 L 106.558594 104.738281 L 106.5625 108.003906 L 80.359375 108.003906 " fill-opacity="1" fill-rule="nonzero"/><path fill="#ffffff" d="M 113.113281 94.945312 L 113.113281 101.472656 L 109.835938 101.472656 L 109.835938 104.738281 L 106.558594 104.738281 L 106.558594 108.003906 L 80.359375 108.003906 L 80.359375 104.738281 L 77.082031 104.738281 L 77.082031 101.472656 L 73.804688 101.472656 L 73.804688 91.679688 L 77.082031 91.679688 L 77.082031 94.945312 L 80.359375 94.945312 L 80.359375 98.207031 L 106.558594 98.207031 L 106.558594 94.945312 L 113.113281 94.945312 " fill-opacity="1" fill-rule="nonzero"/><path fill="#ffffff" d="M 86.910156 78.625 L 86.90625 75.359375 L 70.53125 75.363281 L 70.53125 62.300781 L 73.804688 62.300781 L 73.804688 59.042969 L 70.53125 59.042969 L 70.53125 55.773438 L 67.253906 55.777344 L 67.253906 52.511719 L 70.53125 52.507812 L 70.53125 45.984375 L 77.082031 45.980469 L 77.078125 42.71875 L 109.835938 42.71875 L 109.839844 45.984375 L 116.386719 45.980469 L 116.390625 49.246094 L 119.664062 49.242188 L 119.667969 55.773438 L 113.113281 55.777344 L 113.117188 59.042969 L 109.835938 59.042969 L 109.839844 62.300781 L 106.558594 62.304688 L 106.5625 65.566406 L 77.082031 65.570312 L 77.082031 68.832031 L 103.289062 68.828125 L 103.289062 78.625 L 86.910156 78.625 " fill-opacity="1" fill-rule="nonzero"/><path fill="#ffffff" d="M 119.664062 49.246094 L 119.664062 55.773438 L 113.113281 55.773438 L 113.113281 59.042969 L 109.835938 59.042969 L 109.835938 62.300781 L 106.558594 62.300781 L 106.558594 65.566406 L 77.082031 65.566406 L 77.082031 68.832031 L 103.289062 68.832031 L 103.289062 78.625 L 86.910156 78.625 L 86.910156 75.359375 L 70.53125 75.359375 L 70.53125 62.300781 L 73.804688 62.300781 L 73.804688 59.042969 L 70.53125 59.042969 L 70.53125 55.773438 L 67.253906 55.773438 L 67.253906 52.511719 L 70.53125 52.511719 L 70.53125 45.984375 L 77.082031 45.984375 L 77.082031 42.71875 L 109.835938 42.71875 L 109.835938 45.984375 L 116.386719 45.984375 L 116.386719 49.246094 L 119.664062 49.246094 " fill-opacity="1" fill-rule="nonzero"/><g clip-path="url(#40b6646244)"><path fill="#6d2d2b" d="M 80.359375 111.265625 L 80.355469 108.003906 L 106.558594 108 L 106.5625 111.265625 L 80.359375 111.265625 " fill-opacity="1" fill-rule="nonzero"/><path fill="#6d2d2b" d="M 106.558594 108.003906 L 106.558594 111.265625 L 80.359375 111.265625 L 80.359375 108.003906 L 106.558594 108.003906 " fill-opacity="1" fill-rule="nonzero"/></g><g clip-path="url(#7c638a9c1d)"><path fill="#6d2d2b" d="M 119.664062 55.777344 L 119.664062 49.246094 L 122.941406 49.242188 L 122.941406 55.777344 L 119.664062 55.777344 " fill-opacity="1" fill-rule="nonzero"/><path fill="#6d2d2b" d="M 122.941406 49.246094 L 122.941406 55.773438 L 119.664062 55.773438 L 119.664062 49.246094 L 122.941406 49.246094 " fill-opacity="1" fill-rule="nonzero"/></g><path fill="#6d2d2b" d="M 116.386719 81.890625 L 116.382812 55.773438 L 119.664062 55.773438 L 119.667969 81.890625 L 116.386719 81.890625 " fill-opacity="1" fill-rule="nonzero"/><path fill="#6d2d2b" d="M 119.664062 55.773438 L 119.664062 81.886719 L 116.386719 81.886719 L 116.386719 55.773438 L 119.664062 55.773438 " fill-opacity="1" fill-rule="nonzero"/><path fill="#6d2d2b" d="M 116.386719 49.246094 L 116.382812 45.984375 L 119.664062 45.980469 L 119.667969 49.246094 L 116.386719 49.246094 " fill-opacity="1" fill-rule="nonzero"/><path fill="#6d2d2b" d="M 119.664062 45.984375 L 119.664062 49.246094 L 116.386719 49.246094 L 116.386719 45.984375 L 119.664062 45.984375 " fill-opacity="1" fill-rule="nonzero"/><path fill="#6d2d2b" d="M 113.113281 101.476562 L 113.113281 81.886719 L 116.386719 81.882812 L 116.390625 101.476562 L 113.113281 101.476562 " fill-opacity="1" fill-rule="nonzero"/><path fill="#6d2d2b" d="M 116.386719 81.886719 L 116.386719 101.472656 L 113.113281 101.472656 L 113.113281 81.886719 L 116.386719 81.886719 " fill-opacity="1" fill-rule="nonzero"/><path fill="#6d2d2b" d="M 106.558594 108.003906 L 106.558594 104.738281 L 109.835938 104.734375 L 109.839844 108.003906 L 106.558594 108.003906 " fill-opacity="1" fill-rule="nonzero"/><path fill="#6d2d2b" d="M 106.558594 104.738281 L 109.835938 104.738281 L 109.835938 108.003906 L 106.558594 108.003906 L 106.558594 104.738281 " fill-opacity="1" fill-rule="nonzero"/><path fill="#6d2d2b" d="M 109.835938 104.738281 L 109.835938 101.472656 L 113.113281 101.46875 L 113.117188 104.738281 L 109.835938 104.738281 " fill-opacity="1" fill-rule="nonzero"/><path fill="#6d2d2b" d="M 113.113281 101.472656 L 113.113281 104.738281 L 109.835938 104.738281 L 109.835938 101.472656 L 113.113281 101.472656 " fill-opacity="1" fill-rule="nonzero"/><path fill="#6d2d2b" d="M 109.835938 55.777344 L 109.835938 52.511719 L 113.113281 52.507812 L 113.117188 55.777344 L 109.835938 55.777344 " fill-opacity="1" fill-rule="nonzero"/><path fill="#6d2d2b" d="M 109.835938 55.777344 L 109.835938 52.511719 L 113.113281 52.507812 L 113.117188 55.777344 L 109.835938 55.777344 " fill-opacity="1" fill-rule="nonzero"/><path fill="#6d2d2b" d="M 113.113281 52.511719 L 113.113281 55.773438 L 109.835938 55.773438 L 109.835938 52.511719 L 113.113281 52.511719 " fill-opacity="1" fill-rule="nonzero"/><path fill="#6d2d2b" d="M 109.835938 45.984375 L 109.835938 42.71875 L 116.386719 42.71875 L 116.390625 45.984375 L 109.835938 45.984375 " fill-opacity="1" fill-rule="nonzero"/><path fill="#6d2d2b" d="M 116.386719 42.71875 L 116.386719 45.984375 L 109.835938 45.984375 L 109.835938 42.71875 L 116.386719 42.71875 " fill-opacity="1" fill-rule="nonzero"/><path fill="#6d2d2b" d="M 86.910156 62.304688 L 86.90625 55.773438 L 109.835938 55.773438 L 109.839844 59.042969 L 103.289062 59.042969 L 103.289062 62.304688 L 86.910156 62.304688 " fill-opacity="1" fill-rule="nonzero"/><path fill="#6d2d2b" d="M 86.910156 62.304688 L 86.90625 55.773438 L 109.835938 55.773438 L 109.839844 59.042969 L 103.289062 59.042969 L 103.289062 62.304688 L 86.910156 62.304688 " fill-opacity="1" fill-rule="nonzero"/><path fill="#6d2d2b" d="M 109.835938 55.773438 L 109.835938 59.042969 L 103.289062 59.042969 L 103.289062 62.300781 L 86.910156 62.300781 L 86.910156 55.773438 L 109.835938 55.773438 " fill-opacity="1" fill-rule="nonzero"/><path fill="#6d2d2b" d="M 103.289062 52.511719 L 103.285156 49.246094 L 106.558594 49.242188 L 106.5625 52.511719 L 103.289062 52.511719 " fill-opacity="1" fill-rule="nonzero"/><path fill="#6d2d2b" d="M 103.289062 52.511719 L 103.285156 49.246094 L 106.558594 49.242188 L 106.5625 52.511719 L 103.289062 52.511719 " fill-opacity="1" fill-rule="nonzero"/><path fill="#6d2d2b" d="M 106.558594 49.246094 L 106.558594 52.511719 L 103.289062 52.511719 L 103.289062 49.246094 L 106.558594 49.246094 " fill-opacity="1" fill-rule="nonzero"/><path fill="#6d2d2b" d="M 77.082031 108.003906 L 77.078125 104.738281 L 80.359375 104.734375 L 80.359375 108.003906 L 77.082031 108.003906 " fill-opacity="1" fill-rule="nonzero"/><path fill="#6d2d2b" d="M 80.359375 104.738281 L 80.359375 108.003906 L 77.082031 108.003906 L 77.082031 104.738281 L 80.359375 104.738281 " fill-opacity="1" fill-rule="nonzero"/><path fill="#6d2d2b" d="M 73.804688 104.738281 L 73.804688 101.472656 L 77.082031 101.46875 L 77.082031 104.738281 L 73.804688 104.738281 " fill-opacity="1" fill-rule="nonzero"/><path fill="#6d2d2b" d="M 77.082031 101.472656 L 77.082031 104.738281 L 73.804688 104.738281 L 73.804688 101.472656 L 77.082031 101.472656 " fill-opacity="1" fill-rule="nonzero"/><g clip-path="url(#3447cf81d8)"><path fill="#6d2d2b" d="M 77.082031 42.722656 L 77.078125 39.453125 L 109.835938 39.449219 L 109.839844 42.722656 L 77.082031 42.722656 " fill-opacity="1" fill-rule="nonzero"/><path fill="#6d2d2b" d="M 109.835938 39.453125 L 109.835938 42.71875 L 77.082031 42.71875 L 77.082031 39.453125 L 109.835938 39.453125 " fill-opacity="1" fill-rule="nonzero"/></g><path fill="#6d2d2b" d="M 70.53125 101.476562 L 70.53125 81.886719 L 73.804688 81.882812 L 73.808594 101.476562 L 70.53125 101.476562 " fill-opacity="1" fill-rule="nonzero"/><path fill="#6d2d2b" d="M 73.804688 81.886719 L 73.804688 101.472656 L 70.53125 101.472656 L 70.53125 81.886719 L 73.804688 81.886719 " fill-opacity="1" fill-rule="nonzero"/><path fill="#673e30" d="M 80.359375 62.304688 L 80.355469 59.042969 L 86.910156 59.039062 L 86.910156 62.304688 L 80.359375 62.304688 " fill-opacity="1" fill-rule="nonzero"/><path fill="#673e30" d="M 86.910156 59.042969 L 86.910156 62.300781 L 80.359375 62.300781 L 80.359375 59.042969 L 86.910156 59.042969 " fill-opacity="1" fill-rule="nonzero"/><path fill="#673e30" d="M 96.734375 55.777344 L 96.734375 52.511719 L 86.910156 52.511719 L 86.90625 49.246094 L 103.289062 49.242188 L 103.289062 52.511719 L 109.835938 52.507812 L 109.839844 55.777344 L 96.734375 55.777344 " fill-opacity="1" fill-rule="nonzero"/><path fill="#673e30" d="M 96.734375 55.777344 L 96.734375 52.511719 L 86.910156 52.511719 L 86.90625 49.246094 L 103.289062 49.242188 L 103.289062 52.511719 L 109.835938 52.507812 L 109.839844 55.777344 L 96.734375 55.777344 " fill-opacity="1" fill-rule="nonzero"/><path fill="#673e30" d="M 96.734375 55.773438 L 96.734375 52.511719 L 86.910156 52.511719 L 86.910156 49.246094 L 103.289062 49.246094 L 103.289062 52.511719 L 109.835938 52.511719 L 109.835938 55.773438 L 96.734375 55.773438 " fill-opacity="1" fill-rule="nonzero"/><path fill="#673e30" d="M 77.082031 52.511719 L 77.078125 49.246094 L 80.359375 49.242188 L 80.359375 52.511719 L 77.082031 52.511719 " fill-opacity="1" fill-rule="nonzero"/><path fill="#673e30" d="M 80.359375 52.511719 L 77.082031 52.511719 L 77.082031 49.246094 L 80.359375 49.246094 L 80.359375 52.511719 " fill-opacity="1" fill-rule="nonzero"/><path fill="#673e30" d="M 77.082031 94.949219 L 77.078125 91.679688 L 73.804688 91.683594 L 73.804688 81.886719 L 70.53125 81.890625 L 70.53125 78.625 L 77.082031 78.621094 L 77.082031 81.886719 L 80.359375 81.882812 L 80.359375 94.949219 L 77.082031 94.949219 " fill-opacity="1" fill-rule="nonzero"/><path fill="#673e30" d="M 77.082031 81.886719 L 80.359375 81.886719 L 80.359375 94.945312 L 77.082031 94.945312 L 77.082031 91.679688 L 73.804688 91.679688 L 73.804688 81.886719 L 70.53125 81.886719 L 70.53125 78.625 L 77.082031 78.625 L 77.082031 81.886719 " fill-opacity="1" fill-rule="nonzero"/><path fill="#673e30" d="M 103.289062 62.304688 L 103.285156 59.042969 L 106.558594 59.039062 L 106.5625 62.304688 L 103.289062 62.304688 " fill-opacity="1" fill-rule="nonzero"/><path fill="#673e30" d="M 103.289062 59.042969 L 106.558594 59.042969 L 106.558594 62.300781 L 103.289062 62.300781 L 103.289062 59.042969 " fill-opacity="1" fill-rule="nonzero"/><path fill="#673e30" d="M 100.011719 94.949219 L 100.007812 91.679688 L 103.289062 91.679688 L 103.285156 88.414062 L 106.558594 88.414062 L 106.558594 85.152344 L 113.113281 85.148438 L 113.117188 91.679688 L 106.558594 91.683594 L 106.5625 94.949219 L 100.011719 94.949219 " fill-opacity="1" fill-rule="nonzero"/><path fill="#673e30" d="M 113.113281 85.152344 L 113.113281 91.679688 L 106.558594 91.679688 L 106.558594 94.945312 L 100.011719 94.945312 L 100.011719 91.679688 L 103.289062 91.679688 L 103.289062 88.414062 L 106.558594 88.414062 L 106.558594 85.152344 L 113.113281 85.152344 " fill-opacity="1" fill-rule="nonzero"/><path fill="#673e30" d="M 109.835938 81.890625 L 109.835938 78.625 L 113.113281 78.621094 L 113.117188 81.890625 L 109.835938 81.890625 " fill-opacity="1" fill-rule="nonzero"/><path fill="#673e30" d="M 109.835938 78.625 L 113.113281 78.625 L 113.113281 81.886719 L 109.835938 81.886719 L 109.835938 78.625 " fill-opacity="1" fill-rule="nonzero"/><path fill="#673e30" d="M 113.113281 78.625 L 113.113281 75.359375 L 116.386719 75.355469 L 116.390625 78.625 L 113.113281 78.625 " fill-opacity="1" fill-rule="nonzero"/><path fill="#673e30" d="M 116.386719 75.359375 L 116.386719 78.625 L 113.113281 78.625 L 113.113281 75.359375 L 116.386719 75.359375 " fill-opacity="1" fill-rule="nonzero"/><path fill="#925d39" d="M 70.53125 78.625 L 70.53125 75.359375 L 73.804688 75.355469 L 73.808594 78.625 L 70.53125 78.625 " fill-opacity="1" fill-rule="nonzero"/><path fill="#925d39" d="M 70.53125 75.359375 L 73.804688 75.359375 L 73.804688 78.625 L 70.53125 78.625 L 70.53125 75.359375 " fill-opacity="1" fill-rule="nonzero"/><path fill="#925d39" d="M 77.082031 59.042969 L 77.078125 55.773438 L 83.628906 55.773438 L 83.628906 52.511719 L 96.734375 52.507812 L 96.738281 55.773438 L 86.910156 55.777344 L 86.910156 59.042969 L 77.082031 59.042969 " fill-opacity="1" fill-rule="nonzero"/><path fill="#925d39" d="M 77.082031 59.042969 L 77.082031 55.773438 L 83.628906 55.773438 L 83.628906 52.511719 L 96.734375 52.511719 L 96.734375 55.773438 L 86.910156 55.773438 L 86.910156 59.042969 L 77.082031 59.042969 " fill-opacity="1" fill-rule="nonzero"/><path fill="#925d39" d="M 80.359375 85.152344 L 80.355469 81.886719 L 77.082031 81.890625 L 77.078125 78.625 L 109.835938 78.621094 L 109.839844 81.886719 L 113.113281 81.882812 L 113.117188 85.152344 L 80.359375 85.152344 " fill-opacity="1" fill-rule="nonzero"/><path fill="#925d39" d="M 109.835938 81.886719 L 113.113281 81.886719 L 113.113281 85.152344 L 80.359375 85.152344 L 80.359375 81.886719 L 77.082031 81.886719 L 77.082031 78.625 L 109.835938 78.625 L 109.835938 81.886719 " fill-opacity="1" fill-rule="nonzero"/><path fill="#925d39" d="M 80.359375 98.207031 L 80.355469 91.679688 L 83.628906 91.679688 L 83.632812 94.945312 L 106.558594 94.941406 L 106.5625 98.207031 L 80.359375 98.207031 " fill-opacity="1" fill-rule="nonzero"/><path fill="#925d39" d="M 106.558594 94.945312 L 106.558594 98.207031 L 80.359375 98.207031 L 80.359375 91.679688 L 83.628906 91.679688 L 83.628906 94.945312 L 106.558594 94.945312 " fill-opacity="1" fill-rule="nonzero"/><path fill="#925d39" d="M 113.113281 81.890625 L 113.113281 78.625 L 116.386719 78.621094 L 116.390625 81.890625 L 113.113281 81.890625 " fill-opacity="1" fill-rule="nonzero"/><path fill="#925d39" d="M 116.386719 78.625 L 116.386719 81.886719 L 113.113281 81.886719 L 113.113281 78.625 L 116.386719 78.625 " fill-opacity="1" fill-rule="nonzero"/><path fill="#925d39" d="M 106.558594 94.949219 L 106.558594 91.679688 L 113.113281 91.679688 L 113.117188 94.949219 L 106.558594 94.949219 " fill-opacity="1" fill-rule="nonzero"/><path fill="#925d39" d="M 113.113281 91.679688 L 113.113281 94.945312 L 106.558594 94.945312 L 106.558594 91.679688 L 113.113281 91.679688 " fill-opacity="1" fill-rule="nonzero"/><path fill="#6d2d2b" d="M 73.804688 59.042969 L 73.804688 55.773438 L 70.53125 55.777344 L 70.53125 52.511719 L 80.359375 52.507812 L 80.355469 49.246094 L 86.910156 49.242188 L 86.910156 52.511719 L 83.628906 52.511719 L 83.632812 55.773438 L 77.082031 55.777344 L 77.082031 59.042969 L 73.804688 59.042969 " fill-opacity="1" fill-rule="nonzero"/><path fill="#6d2d2b" d="M 86.910156 49.246094 L 86.910156 52.511719 L 83.628906 52.511719 L 83.628906 55.773438 L 77.082031 55.773438 L 77.082031 59.042969 L 73.804688 59.042969 L 73.804688 55.773438 L 70.53125 55.773438 L 70.53125 52.511719 L 80.359375 52.511719 L 80.359375 49.246094 L 86.910156 49.246094 " fill-opacity="1" fill-rule="nonzero"/><path fill="#6d2d2b" d="M 70.53125 45.984375 L 70.53125 42.71875 L 77.082031 42.71875 L 77.082031 45.984375 L 70.53125 45.984375 " fill-opacity="1" fill-rule="nonzero"/><path fill="#6d2d2b" d="M 77.082031 42.71875 L 77.082031 45.984375 L 70.53125 45.984375 L 70.53125 42.71875 L 77.082031 42.71875 " fill-opacity="1" fill-rule="nonzero"/><path fill="#6d2d2b" d="M 67.253906 81.890625 L 67.253906 55.773438 L 70.53125 55.773438 L 70.535156 81.890625 L 67.253906 81.890625 " fill-opacity="1" fill-rule="nonzero"/><path fill="#6d2d2b" d="M 70.53125 55.773438 L 70.53125 81.886719 L 67.253906 81.886719 L 67.253906 55.773438 L 70.53125 55.773438 " fill-opacity="1" fill-rule="nonzero"/><path fill="#c5c9b1" d="M 103.289062 78.625 L 103.285156 68.832031 L 77.082031 68.835938 L 77.078125 65.566406 L 106.558594 65.5625 L 106.558594 62.300781 L 109.835938 62.300781 L 109.835938 59.042969 L 113.113281 59.039062 L 113.113281 55.773438 L 116.386719 55.773438 L 116.390625 65.566406 L 113.113281 65.570312 L 113.117188 72.09375 L 109.835938 72.097656 L 109.839844 75.359375 L 106.558594 75.363281 L 106.5625 78.625 L 103.289062 78.625 " fill-opacity="1" fill-rule="nonzero"/><path fill="#c5c9b1" d="M 116.386719 55.773438 L 116.386719 65.566406 L 113.113281 65.566406 L 113.113281 72.09375 L 109.835938 72.09375 L 109.835938 75.359375 L 106.558594 75.359375 L 106.558594 78.625 L 103.289062 78.625 L 103.289062 68.832031 L 77.082031 68.832031 L 77.082031 65.566406 L 106.558594 65.566406 L 106.558594 62.300781 L 109.835938 62.300781 L 109.835938 59.042969 L 113.113281 59.042969 L 113.113281 55.773438 L 116.386719 55.773438 " fill-opacity="1" fill-rule="nonzero"/><path fill="#c5c9b1" d="M 106.558594 52.511719 L 106.558594 49.246094 L 113.113281 49.242188 L 113.117188 52.511719 L 106.558594 52.511719 " fill-opacity="1" fill-rule="nonzero"/><path fill="#c5c9b1" d="M 106.558594 52.511719 L 106.558594 49.246094 L 113.113281 49.246094 L 113.113281 52.511719 L 106.558594 52.511719 " fill-opacity="1" fill-rule="nonzero"/><path fill="#c5c9b1" d="M 86.910156 94.949219 L 86.90625 91.679688 L 96.734375 91.679688 L 96.734375 88.414062 L 103.289062 88.414062 L 103.289062 91.679688 L 100.011719 91.683594 L 100.011719 94.949219 L 86.910156 94.949219 " fill-opacity="1" fill-rule="nonzero"/><path fill="#c5c9b1" d="M 103.289062 88.414062 L 103.289062 91.679688 L 100.011719 91.679688 L 100.011719 94.945312 L 86.910156 94.945312 L 86.910156 91.679688 L 96.734375 91.679688 L 96.734375 88.414062 L 103.289062 88.414062 " fill-opacity="1" fill-rule="nonzero"/><path fill="#c5c9b1" d="M 70.53125 62.304688 L 70.53125 59.042969 L 73.804688 59.039062 L 73.808594 62.304688 L 70.53125 62.304688 " fill-opacity="1" fill-rule="nonzero"/><path fill="#c5c9b1" d="M 73.804688 59.042969 L 73.804688 62.300781 L 70.53125 62.300781 L 70.53125 59.042969 L 73.804688 59.042969 " fill-opacity="1" fill-rule="nonzero"/><path fill="#c5c9b1" d="M 73.804688 65.570312 L 73.804688 62.300781 L 77.082031 62.300781 L 77.082031 65.570312 L 73.804688 65.570312 " fill-opacity="1" fill-rule="nonzero"/><path fill="#c5c9b1" d="M 77.082031 62.300781 L 77.082031 65.566406 L 73.804688 65.566406 L 73.804688 62.300781 L 77.082031 62.300781 " fill-opacity="1" fill-rule="nonzero"/><path fill="#c5c9b1" d="M 103.289062 49.246094 L 103.285156 45.984375 L 106.558594 45.980469 L 106.5625 49.246094 L 103.289062 49.246094 " fill-opacity="1" fill-rule="nonzero"/><path fill="#c5c9b1" d="M 106.558594 49.246094 L 103.289062 49.246094 L 103.289062 45.984375 L 106.558594 45.984375 L 106.558594 49.246094 " fill-opacity="1" fill-rule="nonzero"/><path fill="#c5c9b1" d="M 67.253906 52.511719 L 67.253906 49.246094 L 70.53125 49.242188 L 70.535156 52.511719 L 67.253906 52.511719 " fill-opacity="1" fill-rule="nonzero"/><path fill="#c5c9b1" d="M 70.53125 52.511719 L 67.253906 52.511719 L 67.253906 49.246094 L 70.53125 49.246094 L 70.53125 52.511719 " fill-opacity="1" fill-rule="nonzero"/><path fill="#c5c9b1" d="M 73.804688 52.511719 L 73.804688 49.246094 L 77.082031 49.242188 L 77.082031 52.511719 L 73.804688 52.511719 " fill-opacity="1" fill-rule="nonzero"/><path fill="#c5c9b1" d="M 77.082031 52.511719 L 73.804688 52.511719 L 73.804688 49.246094 L 77.082031 49.246094 L 77.082031 52.511719 " fill-opacity="1" fill-rule="nonzero"/><path fill="#c5c9b1" d="M 73.804688 78.625 L 73.804688 75.359375 L 86.910156 75.355469 L 86.910156 78.625 L 73.804688 78.625 " fill-opacity="1" fill-rule="nonzero"/><path fill="#c5c9b1" d="M 86.910156 78.625 L 73.804688 78.625 L 73.804688 75.359375 L 86.910156 75.359375 L 86.910156 78.625 " fill-opacity="1" fill-rule="nonzero"/><path fill="#6d2d2b" d="M 67.253906 49.246094 L 67.253906 45.984375 L 70.53125 45.980469 L 70.535156 49.246094 L 67.253906 49.246094 " fill-opacity="1" fill-rule="nonzero"/><path fill="#6d2d2b" d="M 70.53125 45.984375 L 70.53125 49.246094 L 67.253906 49.246094 L 67.253906 45.984375 L 70.53125 45.984375 " fill-opacity="1" fill-rule="nonzero"/><g clip-path="url(#117f46b2fe)"><path fill="#6d2d2b" d="M 63.980469 55.777344 L 63.976562 49.246094 L 67.253906 49.242188 L 67.257812 55.777344 L 63.980469 55.777344 " fill-opacity="1" fill-rule="nonzero"/><path fill="#6d2d2b" d="M 67.253906 49.246094 L 67.253906 55.773438 L 63.980469 55.773438 L 63.980469 49.246094 L 67.253906 49.246094 " fill-opacity="1" fill-rule="nonzero"/></g><g fill="#000000" fill-opacity="1"><g transform="translate(20.230261, 128.209341)"><g><path d="M 2.421875 0 L 2.421875 -1.609375 L 7.25 -1.609375 L 7.25 -3.21875 L 4.03125 -3.21875 L 4.03125 -4.828125 L 8.859375 -4.828125 L 8.859375 0 Z M 0.8125 -1.609375 L 0.8125 -6.4375 L 2.421875 -6.4375 L 2.421875 -1.609375 Z M 2.421875 -6.4375 L 2.421875 -8.046875 L 8.859375 -8.046875 L 8.859375 -6.4375 Z M 2.421875 -6.4375 "/></g></g></g><g fill="#000000" fill-opacity="1"><g transform="translate(29.891279, 128.209341)"><g><path d="M 0.8125 0 L 0.8125 -6.4375 L 2.421875 -6.4375 L 2.421875 -3.21875 L 7.25 -3.21875 L 7.25 -6.4375 L 8.859375 -6.4375 L 8.859375 0 L 7.25 0 L 7.25 -1.609375 L 2.421875 -1.609375 L 2.421875 0 Z M 2.421875 -6.4375 L 2.421875 -8.046875 L 7.25 -8.046875 L 7.25 -6.4375 Z M 2.421875 -6.4375 "/></g></g></g><g fill="#000000" fill-opacity="1"><g transform="translate(39.552297, 128.209341)"><g><path d="M 7.25 0 L 7.25 -4.828125 L 5.640625 -4.828125 L 5.640625 -6.4375 L 7.25 -6.4375 L 7.25 -8.046875 L 8.859375 -8.046875 L 8.859375 0 Z M 0.8125 0 L 0.8125 -8.046875 L 2.421875 -8.046875 L 2.421875 -6.4375 L 4.03125 -6.4375 L 4.03125 -4.828125 L 2.421875 -4.828125 L 2.421875 0 Z M 4.03125 -3.21875 L 4.03125 -4.828125 L 5.640625 -4.828125 L 5.640625 -3.21875 Z M 4.03125 -3.21875 "/></g></g></g><g fill="#000000" fill-opacity="1"><g transform="translate(49.213314, 128.209341)"><g><path d="M 0.8125 0 L 0.8125 -8.046875 L 8.859375 -8.046875 L 8.859375 -6.4375 L 2.421875 -6.4375 L 2.421875 -4.828125 L 7.25 -4.828125 L 7.25 -3.21875 L 2.421875 -3.21875 L 2.421875 -1.609375 L 8.859375 -1.609375 L 8.859375 0 Z M 0.8125 0 "/></g></g></g><g fill="#000000" fill-opacity="1"><g transform="translate(58.874332, 128.209341)"><g/></g></g><g fill="#000000" fill-opacity="1"><g transform="translate(63.704845, 128.209341)"><g><path d="M 2.421875 -6.4375 L 2.421875 -4.828125 L 0.8125 -4.828125 L 0.8125 -6.4375 Z M 0.8125 -1.609375 L 0.8125 -3.21875 L 2.421875 -3.21875 L 2.421875 -1.609375 Z M 2.421875 0 L 2.421875 -1.609375 L 5.640625 -1.609375 L 5.640625 0 Z M 2.421875 -3.21875 L 2.421875 -4.828125 L 5.640625 -4.828125 L 5.640625 -3.21875 Z M 2.421875 -6.4375 L 2.421875 -8.046875 L 7.25 -8.046875 L 7.25 -6.4375 Z M 5.640625 -1.609375 L 5.640625 -3.21875 L 7.25 -3.21875 L 7.25 -1.609375 Z M 7.25 0 L 7.25 -1.609375 L 8.859375 -1.609375 L 8.859375 0 Z M 7.25 -3.21875 L 7.25 -4.828125 L 8.859375 -4.828125 L 8.859375 -3.21875 Z M 7.25 -3.21875 "/></g></g></g><g fill="#000000" fill-opacity="1"><g transform="translate(73.365863, 128.209341)"><g/></g></g><g fill="#000000" fill-opacity="1"><g transform="translate(78.196376, 128.209341)"><g><path d="M 2.421875 0 L 2.421875 -1.609375 L 7.25 -1.609375 L 7.25 -3.21875 L 4.03125 -3.21875 L 4.03125 -4.828125 L 8.859375 -4.828125 L 8.859375 0 Z M 0.8125 -1.609375 L 0.8125 -6.4375 L 2.421875 -6.4375 L 2.421875 -1.609375 Z M 2.421875 -6.4375 L 2.421875 -8.046875 L 8.859375 -8.046875 L 8.859375 -6.4375 Z M 2.421875 -6.4375 "/></g></g></g><g fill="#000000" fill-opacity="1"><g transform="translate(87.857393, 128.209341)"><g><path d="M 0.8125 0 L 0.8125 -8.046875 L 7.25 -8.046875 L 7.25 -6.4375 L 2.421875 -6.4375 L 2.421875 -3.21875 L 7.25 -3.21875 L 7.25 -1.609375 L 2.421875 -1.609375 L 2.421875 0 Z M 7.25 0 L 7.25 -1.609375 L 8.859375 -1.609375 L 8.859375 0 Z M 7.25 -3.21875 L 7.25 -6.4375 L 8.859375 -6.4375 L 8.859375 -3.21875 Z M 7.25 -3.21875 "/></g></g></g><g fill="#000000" fill-opacity="1"><g transform="translate(97.518411, 128.209341)"><g><path d="M 0.8125 0 L 0.8125 -1.609375 L 2.421875 -1.609375 L 2.421875 -3.21875 L 0.8125 -3.21875 L 0.8125 -4.828125 L 5.640625 -4.828125 L 5.640625 -3.21875 L 4.03125 -3.21875 L 4.03125 -1.609375 L 5.640625 -1.609375 L 5.640625 0 Z M 2.421875 -6.4375 L 2.421875 -8.046875 L 4.03125 -8.046875 L 4.03125 -6.4375 Z M 2.421875 -6.4375 "/></g></g></g><g fill="#000000" fill-opacity="1"><g transform="translate(103.959092, 128.209341)"><g><path d="M 7.25 0 L 7.25 -1.609375 L 5.640625 -1.609375 L 5.640625 -3.21875 L 7.25 -3.21875 L 7.25 -8.046875 L 8.859375 -8.046875 L 8.859375 0 Z M 0.8125 0 L 0.8125 -8.046875 L 2.421875 -8.046875 L 2.421875 -6.4375 L 4.03125 -6.4375 L 4.03125 -4.828125 L 2.421875 -4.828125 L 2.421875 0 Z M 4.03125 -3.21875 L 4.03125 -4.828125 L 5.640625 -4.828125 L 5.640625 -3.21875 Z M 4.03125 -3.21875 "/></g></g></g><g fill="#000000" fill-opacity="1"><g transform="translate(113.62011, 128.209341)"><g><path d="M 0.8125 0 L 0.8125 -8.046875 L 7.25 -8.046875 L 7.25 -6.4375 L 2.421875 -6.4375 L 2.421875 -1.609375 L 7.25 -1.609375 L 7.25 0 Z M 7.25 -1.609375 L 7.25 -6.4375 L 8.859375 -6.4375 L 8.859375 -1.609375 Z M 7.25 -1.609375 "/></g></g></g><g fill="#000000" fill-opacity="1"><g transform="translate(123.281128, 128.209341)"><g/></g></g><g fill="#000000" fill-opacity="1"><g transform="translate(128.111641, 128.209341)"><g><path d="M 2.421875 -6.4375 L 2.421875 -1.609375 L 0.8125 -1.609375 L 0.8125 -6.4375 Z M 2.421875 0 L 2.421875 -1.609375 L 8.859375 -1.609375 L 8.859375 0 Z M 2.421875 -6.4375 L 2.421875 -8.046875 L 8.859375 -8.046875 L 8.859375 -6.4375 Z M 2.421875 -6.4375 "/></g></g></g><g fill="#000000" fill-opacity="1"><g transform="translate(137.772658, 128.209341)"><g><path d="M 0.8125 0 L 0.8125 -6.4375 L 2.421875 -6.4375 L 2.421875 -3.21875 L 7.25 -3.21875 L 7.25 -6.4375 L 8.859375 -6.4375 L 8.859375 0 L 7.25 0 L 7.25 -1.609375 L 2.421875 -1.609375 L 2.421875 0 Z M 2.421875 -6.4375 L 2.421875 -8.046875 L 7.25 -8.046875 L 7.25 -6.4375 Z M 2.421875 -6.4375 "/></g></g></g><g fill="#000000" fill-opacity="1"><g transform="translate(147.433676, 128.209341)"><g><path d="M 0.8125 0 L 0.8125 -8.046875 L 8.859375 -8.046875 L 8.859375 -6.4375 L 2.421875 -6.4375 L 2.421875 -4.828125 L 7.25 -4.828125 L 7.25 -3.21875 L 2.421875 -3.21875 L 2.421875 0 Z M 0.8125 0 "/></g></g></g><g fill="#000000" fill-opacity="1"><g transform="translate(157.094694, 128.209341)"><g><path d="M 0.8125 0 L 0.8125 -8.046875 L 8.859375 -8.046875 L 8.859375 -6.4375 L 2.421875 -6.4375 L 2.421875 -4.828125 L 7.25 -4.828125 L 7.25 -3.21875 L 2.421875 -3.21875 L 2.421875 -1.609375 L 8.859375 -1.609375 L 8.859375 0 Z M 4.03125 -9.65625 L 4.03125 -11.265625 L 5.640625 -11.265625 L 5.640625 -9.65625 Z M 5.640625 -11.265625 L 5.640625 -12.875 L 7.25 -12.875 L 7.25 -11.265625 Z M 5.640625 -11.265625 "/></g></g></g></svg>